<svg xmlns="http://www.w3.org/2000/svg" width="24" height="24" viewBox="0 0 24 24" fill="none"><path d="M21.2695 10.2031C21.2695 17.2031 12.2695 23.2031 12.2695 23.2031C12.2695 23.2031 3.26953 17.2031 3.26953 10.2031C3.26953 7.81618 4.21774 5.52699 5.90557 3.83916C7.5934 2.15134 9.88258 1.20312 12.2695 1.20312C14.6565 1.20313 16.9457 2.15134 18.6335 3.83916C20.3213 5.52699 21.2695 7.81618 21.2695 10.2031Z" stroke="#475569" stroke-width="1.5" stroke-linecap="round" stroke-linejoin="round"></path><path d="M12.2695 13.2031C13.9264 13.2031 15.2695 11.86 15.2695 10.2031C15.2695 8.54627 13.9264 7.20312 12.2695 7.20312C10.6127 7.20312 9.26953 8.54627 9.26953 10.2031C9.26953 11.86 10.6127 13.2031 12.2695 13.2031Z" stroke="#475569" stroke-width="1.5" stroke-linecap="round" stroke-linejoin="round"></path></svg>