<?xml version="1.0" encoding="UTF-8"?>
<svg width="197px" height="45px" viewBox="0 0 197 45" version="1.1" xmlns="http://www.w3.org/2000/svg" xmlns:xlink="http://www.w3.org/1999/xlink">
    <title>Primary Logo</title>
    <defs>
        <polygon id="path-1" points="0 44.6211003 196.637725 44.6211003 196.637725 0.00101593999 0 0.00101593999"></polygon>
    </defs>
    <g id="Primary-Logo" stroke="none" stroke-width="1" fill="none" fill-rule="evenodd">
        <g id="Group-29-Copy-3">
            <path d="M55.2676435,20.9303957 L44.1786585,20.9303957 C42.9874688,20.9303957 42.1137604,21.1589822 41.5549934,21.6136153 C40.9987663,22.0657086 40.7193828,22.7844862 40.7193828,23.7724878 C40.7193828,24.564921 40.9555888,25.1592459 41.4305408,25.5529226 C41.9080326,25.9491392 42.6166507,26.1447077 43.5538554,26.1447077 L49.4996442,26.1447077 C51.9455197,26.1447077 53.6878568,26.6171198 54.7241156,27.5644838 C55.7603744,28.5143877 56.2785038,30.0941744 56.2785038,32.3063837 C56.2785038,34.5439916 55.681639,36.1923542 54.4853697,37.2438521 C53.2891003,38.29535 51.4096113,38.8210989 48.8443629,38.8210989 L36.8943687,38.8210989 L36.8943687,34.9554473 L48.130665,34.9554473 C49.4107494,34.9554473 50.3123962,34.7624187 50.8356053,34.383981 C51.3588143,34.0030035 51.6204189,33.3705809 51.6204189,32.4892529 C51.6204189,31.5774468 51.3791331,30.9323249 50.9016414,30.5462677 C50.4216097,30.1602105 49.6012382,29.9671819 48.4379869,29.9671819 L43.1322403,29.9671819 C40.6838249,29.9671819 38.8932307,29.4642916 37.7604576,28.4635907 C36.6276845,27.4628898 36.0612979,25.8831031 36.0612979,23.7242307 C36.0612979,21.4129672 36.6556228,19.7265068 37.8468125,18.6623097 C39.0380021,17.5981125 40.9301903,17.064744 43.5233772,17.064744 L55.2676435,17.064744 L55.2676435,20.9303957 Z" id="Fill-1" fill="#003790"></path>
            <path d="M65.4519339,35.3163599 L68.751199,35.3163599 L68.751199,22.8660154 L72.8809951,22.8660154 L72.8809951,38.3946581 C72.8809951,40.5103531 72.4009634,42.0723609 71.4358204,43.0959204 C70.4706774,44.1118604 68.9950246,44.6198304 67.0088619,44.6198304 L58.949918,44.6198304 L58.949918,41.3840615 L66.3027836,41.3840615 C67.0901371,41.3840615 67.6946214,41.1884931 68.1187764,40.7948163 C68.5403915,40.4036794 68.751199,39.8322132 68.751199,39.0854973 L68.751199,38.8213529 L65.1217534,38.8213529 C62.7876313,38.8213529 61.1240295,38.3514807 60.133488,37.4117362 C59.1378669,36.4719917 58.6400563,34.9049042 58.6400563,32.7104739 L58.6400563,22.8660154 L62.7292147,22.8660154 L62.7292147,32.3853731 C62.7292147,33.5867221 62.9070042,34.3791553 63.2549637,34.7525132 C63.605463,35.128411 64.3369398,35.3163599 65.4519339,35.3163599" id="Fill-3" fill="#003790"></path>
            <path d="M76.1233676,22.8649994 L83.8800694,22.8649994 C86.2243509,22.8649994 87.898112,23.3145529 88.9013528,24.2161996 C89.9045935,25.1203862 90.4100237,26.6188977 90.4100237,28.7066544 L90.4100237,38.820337 L86.2776878,38.820337 L86.2776878,29.2247838 C86.2776878,28.0310543 86.0948186,27.2564 85.7341599,26.9033609 C85.3735012,26.5477819 84.6496439,26.3699924 83.5625881,26.3699924 L80.2557035,26.3699924 L80.2557035,38.820337 L76.1233676,38.820337 L76.1233676,22.8649994 Z" id="Fill-5" fill="#003790"></path>
            <path d="M101.998089,35.4055087 L106.38441,35.4055087 L106.38441,38.8216069 L100.781501,38.8216069 C99.3591851,38.8216069 98.1933939,38.6692159 97.2815878,38.3720534 C96.3672418,38.0698113 95.5748086,37.5847 94.8992085,36.9141796 C94.1728114,36.1852426 93.603885,35.2962951 93.1949692,34.2447972 C92.7835135,33.1932993 92.5803255,32.0808451 92.5803255,30.9074344 C92.5803255,29.6756071 92.7835135,28.5250551 93.1898895,27.4557782 C93.5937256,26.3865014 94.162652,25.4924742 94.8992085,24.7711568 C95.5824282,24.1006364 96.3875606,23.6129852 97.312066,23.3132829 C98.2340315,23.0135806 99.3896633,22.8662693 100.781501,22.8662693 L106.38441,22.8662693 L106.38441,26.325545 L101.998089,26.325545 C100.055104,26.325545 98.7216827,26.6684248 97.9876661,27.3516444 C97.2561893,28.0374039 96.8853712,29.2235138 96.8853712,30.9150539 C96.8853712,31.8903563 97.0352223,32.7005684 97.3374645,33.3380708 C97.6346269,33.978113 98.0994195,34.4962424 98.7242226,34.8873793 C99.0340843,35.0753282 99.3922031,35.2099402 99.8036588,35.2861357 C100.215115,35.3623312 100.944051,35.4055087 101.998089,35.4055087" id="Fill-7" fill="#003790"></path>
            <path d="M110.07405,26.054797 L107.130364,26.054797 L107.130364,22.8647454 L110.07405,22.8647454 L110.07405,21.2011437 C110.07405,19.5756397 110.366133,18.4809644 110.955378,17.9145778 C111.544623,17.3481913 112.669777,17.0637281 114.340998,17.0637281 L118.252367,17.0637281 L118.252367,20.1217075 L116.294143,20.1217075 C115.588064,20.1217075 115.087714,20.2360007 114.790552,20.4595075 C114.488309,20.6855541 114.340998,21.0538324 114.340998,21.5719618 L114.340998,22.8647454 L118.252367,22.8647454 L118.252367,26.054797 L114.340998,26.054797 L114.340998,38.820083 L110.07405,38.820083 L110.07405,26.054797 Z" id="Fill-9" fill="#003790"></path>
            <path d="M133.948386,38.8210989 L126.171365,38.8210989 C123.89312,38.8210989 122.244757,38.3563064 121.231357,37.4343408 C120.217957,36.5072956 119.709987,35.0265631 119.709987,32.9870635 L119.709987,22.8657614 L123.796606,22.8657614 L123.796606,32.6492635 C123.796606,33.7160005 123.979475,34.4271585 124.340133,34.7801976 C124.703332,35.1383165 125.424649,35.316106 126.504086,35.316106 L129.81859,35.316106 L129.81859,22.8657614 L133.948386,22.8657614 L133.948386,38.8210989 Z" id="Fill-11" fill="#003790"></path>
            <path d="M136.971823,35.4949114 L145.650491,35.4949114 C146.425145,35.4949114 146.986452,35.3729986 147.342031,35.1266331 C147.69507,34.8828075 147.872859,34.4891308 147.872859,33.9506826 C147.872859,33.4122344 147.69507,33.0160178 147.334411,32.7696524 C146.976292,32.5182072 146.417525,32.3912147 145.650491,32.3912147 L142.087081,32.3912147 C139.981546,32.3912147 138.55923,32.0610342 137.817593,31.4006732 C137.078497,30.7377724 136.707679,29.5618218 136.707679,27.8728216 C136.707679,26.1533432 137.154693,24.8884979 138.04872,24.0782857 C138.942747,23.2706135 140.329505,22.8642375 142.203914,22.8642375 L151.08069,22.8642375 L151.08069,26.1914409 L143.783701,26.1914409 C142.592511,26.1914409 141.820397,26.2981146 141.464818,26.5140019 C141.106699,26.7273493 140.92637,27.1083268 140.92637,27.6594742 C140.92637,28.1572848 141.08638,28.5255631 141.398782,28.7617691 C141.711183,28.9928955 142.208994,29.1122684 142.887134,29.1122684 L146.625793,29.1122684 C148.327493,29.1122684 149.627896,29.5161045 150.524463,30.3263167 C151.42357,31.1365288 151.870583,32.3073997 151.870583,33.8414691 C151.870583,35.3171219 151.471827,36.5133912 150.676854,37.4378966 C149.884421,38.3598622 148.863401,38.8221149 147.611255,38.8221149 L136.971823,38.8221149 L136.971823,35.4949114 Z" id="Fill-13" fill="#003790"></path>
            <mask id="mask-2" fill="white">
                <use xlink:href="#path-1"></use>
            </mask>
            <g id="Clip-16"></g>
            <path d="M154.354303,21.0665316 L158.659348,21.0665316 L158.659348,17.1094454 L154.354303,17.1094454 L154.354303,21.0665316 Z M154.354303,38.820083 L158.659348,38.820083 L158.659348,22.8647454 L154.354303,22.8647454 L154.354303,38.820083 Z" id="Fill-15" fill="#003790" mask="url(#mask-2)"></path>
            <path d="M177.352898,30.8566374 C177.352898,33.3583896 176.606182,35.3572515 175.11783,36.8506833 C173.626938,38.3441151 171.615377,39.0882911 169.088226,39.0882911 C166.561076,39.0882911 164.546975,38.3415752 163.040844,36.8430638 C161.534712,35.3470921 160.782917,33.35077 160.782917,30.8566374 C160.782917,28.3548851 161.534712,26.3534834 163.040844,24.8473523 C164.546975,23.346301 166.561076,22.5919655 169.088226,22.5919655 C171.597598,22.5919655 173.60154,23.346301 175.102591,24.8473523 C176.603642,26.3534834 177.352898,28.3548851 177.352898,30.8566374 M165.090502,30.8566374 C165.090502,32.3754677 165.441002,33.553958 166.136921,34.4022679 C166.835379,35.2505778 167.808142,35.6721929 169.060288,35.6721929 C170.299735,35.6721929 171.275037,35.2505778 171.983655,34.4022679 C172.692273,33.553958 173.045313,32.3754677 173.045313,30.8566374 C173.045313,29.3403469 172.694813,28.1593167 171.991275,27.3186263 C171.285197,26.4753962 170.309894,26.0537811 169.060288,26.0537811 C167.818301,26.0537811 166.848079,26.477936 166.14454,27.323706 C165.441002,28.1720159 165.090502,29.3505063 165.090502,30.8566374" id="Fill-17" fill="#003790" mask="url(#mask-2)"></path>
            <path d="M179.390366,22.8649994 L187.147068,22.8649994 C189.491349,22.8649994 191.16511,23.3145529 192.168351,24.2161996 C193.171592,25.1203862 193.677022,26.6188977 193.677022,28.7066544 L193.677022,38.820337 L189.542146,38.820337 L189.542146,29.2247838 C189.542146,28.0310543 189.361817,27.2564 189.001158,26.9033609 C188.640499,26.5477819 187.916642,26.3699924 186.827047,26.3699924 L183.520162,26.3699924 L183.520162,38.820337 L179.390366,38.820337 L179.390366,22.8649994 Z" id="Fill-18" fill="#003790" mask="url(#mask-2)"></path>
            <polygon id="Fill-19" fill="#003790" mask="url(#mask-2)" points="1.77635684e-15 15.1766195 9.70222691 15.1766195 9.70222691 5.24580614 1.77635684e-15 5.24580614"></polygon>
            <polygon id="Fill-20" fill="#FF8F00" mask="url(#mask-2)" points="32.7970827 14.2607496 39.2000445 6.55230497 31.6617698 -0.000507969995 25.258808 7.71301641"></polygon>
            <polygon id="Fill-21" fill="#003790" mask="url(#mask-2)" points="11.5410783 15.1766195 21.2433052 15.1766195 21.2433052 5.24580614 11.5410783 5.24580614"></polygon>
            <polygon id="Fill-22" fill="#003790" mask="url(#mask-2)" points="1.77635684e-15 26.9818422 9.70222691 26.9818422 9.70222691 17.0510288 1.77635684e-15 17.0510288"></polygon>
            <polygon id="Fill-23" fill="#003790" mask="url(#mask-2)" points="11.5410783 26.9818422 21.2433052 26.9818422 21.2433052 17.0510288 11.5410783 17.0510288"></polygon>
            <polygon id="Fill-24" fill="#FF8F00" mask="url(#mask-2)" points="23.1177145 26.9818422 32.8199414 26.9818422 32.8199414 17.0510288 23.1177145 17.0510288"></polygon>
            <polygon id="Fill-25" fill="#003790" mask="url(#mask-2)" points="0.0177789498 38.7972243 9.72000586 38.7972243 9.72000586 28.8689508 0.0177789498 28.8689508"></polygon>
            <polygon id="Fill-26" fill="#003790" mask="url(#mask-2)" points="11.5563174 38.7972243 21.2610842 38.7972243 21.2610842 28.8689508 11.5563174 28.8689508"></polygon>
            <polygon id="Fill-27" fill="#003790" mask="url(#mask-2)" points="23.1329536 38.7972243 32.8351805 38.7972243 32.8351805 28.8689508 23.1329536 28.8689508"></polygon>
            <path d="M196.638487,22.076376 C196.638487,23.0592979 195.863833,23.8491913 194.906309,23.8491913 C193.941166,23.8491913 193.171592,23.0592979 193.171592,22.0662166 C193.171592,21.0883744 193.956405,20.3061006 194.934248,20.3061006 C195.863833,20.3061006 196.638487,21.1137729 196.638487,22.076376 L196.638487,22.076376 Z M193.826873,21.0883744 C193.590667,21.3575985 193.456055,21.7106376 193.456055,22.0662166 C193.456055,22.8967475 194.098637,23.5621882 194.906309,23.5621882 C195.703822,23.5621882 196.356564,22.8942077 196.356564,22.076376 C196.356564,21.2737834 195.703822,20.5956435 194.929168,20.5956435 C194.484694,20.5956435 194.118956,20.7581939 193.826873,21.0883744 L193.826873,21.0883744 Z M195.622547,23.125334 L195.269508,23.125334 L194.751378,22.3481399 L194.751378,23.125334 L194.466915,23.125334 L194.466915,21.0680556 L194.807255,21.0680556 C195.23903,21.0680556 195.472696,21.2737834 195.472696,21.6547609 C195.472696,21.9620827 195.299986,22.1627309 195.007903,22.2160677 L195.622547,23.125334 Z M194.842813,21.9468436 C195.06378,21.9468436 195.180613,21.8427098 195.180613,21.6496812 C195.180613,21.4439534 195.06632,21.3525188 194.817415,21.3525188 L194.751378,21.3525188 L194.751378,21.9468436 L194.842813,21.9468436 Z" id="Fill-28" fill="#003790" mask="url(#mask-2)"></path>
        </g>
    </g>
</svg>