<svg width="24" height="24" viewBox="0 0 24 24" fill="none" xmlns="http://www.w3.org/2000/svg">
<path d="M6.85733 6C7.07675 6 7.29617 6.08378 7.4633 6.25135L12 10.788L16.5367 6.25135C16.871 5.91622 17.4144 5.91622 17.7486 6.25135C18.0838 6.58648 18.0838 7.12817 17.7486 7.4633L13.2119 12L17.7486 16.5367C18.0838 16.8718 18.0838 17.4135 17.7486 17.7486C17.4144 18.0838 16.871 18.0838 16.5367 17.7486L12 13.212L7.4633 17.7486C7.12904 18.0838 6.58563 18.0838 6.25134 17.7486C5.91622 17.4135 5.91622 16.8718 6.25134 16.5367L10.788 12L6.25134 7.4633C5.91622 7.12817 5.91622 6.58648 6.25134 6.25135C6.41849 6.08378 6.63791 6 6.85733 6Z" fill="black"/>
</svg>
