<svg width="41" height="40" viewBox="0 0 41 40" fill="none" xmlns="http://www.w3.org/2000/svg">
<path d="M19.9426 4.02344C11.0551 4.02344 3.82422 11.2547 3.82422 20.143C3.83114 21.0678 3.91581 21.9905 4.07734 22.9012C4.07734 22.9066 4.08711 22.9043 4.08906 22.909C4.11912 23.021 4.18505 23.1201 4.27676 23.191C4.36847 23.262 4.48091 23.301 4.59687 23.302C4.73936 23.3019 4.87598 23.2452 4.97669 23.1444C5.07741 23.0436 5.13398 22.9069 5.13398 22.7645C5.13145 22.7471 5.12793 22.7299 5.12344 22.7129L5.13281 22.7086C4.98168 21.8619 4.90327 21.0038 4.89844 20.1437C4.89844 11.8352 11.634 5.09961 19.9422 5.09961C28.2504 5.09961 34.9867 11.8359 34.9867 20.1437C34.9867 28.4516 28.2512 35.1875 19.9426 35.1875C14.3902 35.1875 9.55195 32.1711 6.94687 27.6957C6.94687 27.693 6.94336 27.6914 6.94258 27.6887C6.93555 27.677 6.92773 27.6656 6.92109 27.6539C6.87664 27.5677 6.80947 27.4954 6.72685 27.4446C6.64423 27.3939 6.5493 27.3667 6.45234 27.366C6.30992 27.3661 6.17337 27.4227 6.07266 27.5234C5.97196 27.6242 5.91534 27.7607 5.91523 27.9031C5.91771 28.0138 5.95518 28.1209 6.02227 28.209L6.01328 28.2145C8.80742 33.0191 13.998 36.2613 19.9434 36.2613C28.8305 36.2613 36.0613 29.0312 36.0613 20.143C36.0613 11.2547 28.8305 4.02344 19.9426 4.02344Z" fill="#6941C6"/>
<path d="M19.9465 22.2816C23.1621 22.2816 25.7789 24.8988 25.7789 28.1141H26.8535C26.8535 24.3059 23.7551 21.207 19.9465 21.207C16.1379 21.207 13.0391 24.3059 13.0391 28.1141H14.1137C14.1137 24.898 16.7289 22.2816 19.9465 22.2816Z" fill="#6941C6"/>
<path d="M13.0391 28.1152C13.0391 28.2577 13.0957 28.3943 13.1964 28.495C13.2971 28.5958 13.4337 28.6523 13.5762 28.6523C13.7186 28.6523 13.8552 28.5958 13.956 28.495C14.0567 28.3943 14.1133 28.2577 14.1133 28.1152C14.1133 27.9728 14.0567 27.8362 13.956 27.7354C13.8552 27.6347 13.7186 27.5781 13.5762 27.5781C13.4337 27.5781 13.2971 27.6347 13.1964 27.7354C13.0957 27.8362 13.0391 27.9728 13.0391 28.1152Z" fill="#6941C6"/>
<path d="M25.7773 28.1152C25.7773 28.2577 25.8339 28.3943 25.9347 28.495C26.0354 28.5958 26.172 28.6523 26.3145 28.6523C26.4569 28.6523 26.5935 28.5958 26.6942 28.495C26.795 28.3943 26.8516 28.2577 26.8516 28.1152C26.8516 27.9728 26.795 27.8362 26.6942 27.7354C26.5935 27.6347 26.4569 27.5781 26.3145 27.5781C26.172 27.5781 26.0354 27.6347 25.9347 27.7354C25.8339 27.8362 25.7773 27.9728 25.7773 28.1152Z" fill="#6941C6"/>
<path d="M17.897 20.528C18.694 21.3249 19.7749 21.7727 20.902 21.7727C22.029 21.7727 23.1099 21.3249 23.9069 20.528C24.7038 19.731 25.1516 18.6501 25.1516 17.523C25.1516 16.396 24.7038 15.3151 23.9069 14.5181C23.5123 14.1235 23.0438 13.8105 22.5282 13.5969C22.0126 13.3834 21.46 13.2734 20.902 13.2734C19.7749 13.2734 18.694 13.7212 17.897 14.5181C17.5024 14.9127 17.1894 15.3812 16.9758 15.8968C16.7623 16.4124 16.6523 16.965 16.6523 17.523C16.6523 18.6501 17.1001 19.731 17.897 20.528Z" fill="#D6BBFB"/>
<path d="M19.9449 22.2812C17.0094 22.2812 14.6211 19.893 14.6211 16.957C14.6211 14.0211 17.0094 11.6328 19.9449 11.6328C22.8805 11.6328 25.2691 14.0215 25.2691 16.957C25.2691 19.8926 22.8809 22.2812 19.9449 22.2812ZM19.9449 12.7074C19.1043 12.7074 18.2826 12.9567 17.5837 13.4237C16.8848 13.8907 16.3401 14.5545 16.0184 15.3311C15.6967 16.1077 15.6126 16.9623 15.7766 17.7867C15.9406 18.6111 16.3454 19.3684 16.9399 19.9628C17.5343 20.5571 18.2916 20.9619 19.116 21.1258C19.9405 21.2897 20.795 21.2055 21.5716 20.8838C22.3482 20.5621 23.0119 20.0173 23.4789 19.3183C23.9458 18.6194 24.195 17.7976 24.1949 16.957C24.1936 15.8303 23.7454 14.7501 22.9486 13.9535C22.1519 13.1568 21.0716 12.7087 19.9449 12.7074Z" fill="#6941C6"/>
</svg>
