<svg xmlns="http://www.w3.org/2000/svg" width="72" height="72" viewBox="0 0 72 72" fill="none"><path d="M64.2992 35.5898C64.2992 51.3796 51.4991 64.1797 35.7094 64.1797C25.3522 64.1797 16.2814 58.6723 11.2656 50.4263" stroke="#0026D0" stroke-width="2"></path><path d="M7.12708 35.5898C7.12708 19.8001 19.9272 7 35.7169 7C48.6081 7 59.5065 15.532 63.0734 27.2572" stroke="#0026D0" stroke-width="2" stroke-linecap="round" stroke-linejoin="round"></path><path d="M35.6472 27.6141C40.008 21.7844 46.9898 22.4311 49.9356 23.4832V25.9815C50.5828 26.1617 52.0971 26.6936 52.9769 27.3795L52.8245 47.6996C48.9781 45.8301 40.2114 43.0581 35.9158 46.9261C31.5418 43.3755 22.4015 45.9084 18.3782 47.6187V27.3215C19.0261 26.6534 20.9014 26.0308 21.7581 25.803V23.3913C29.4255 21.3685 34.2122 25.3637 35.6472 27.6141Z" fill="white"></path><path d="M35.9158 46.9261C30.9146 40.785 24.3935 41.548 21.7581 42.6972V25.803M35.9158 46.9261C37.1262 44.4745 41.6248 40.1966 49.9356 42.6972V25.9815M35.9158 46.9261L35.6472 27.6141M35.9158 46.9261C31.5418 43.3755 22.4015 45.9084 18.3782 47.6187V27.3215C19.0261 26.6534 20.9014 26.0308 21.7581 25.803M35.9158 46.9261C40.2114 43.0581 48.9781 45.8301 52.8245 47.6996L52.9769 27.3795C52.0971 26.6936 50.5828 26.1617 49.9356 25.9815M35.6472 27.6141C40.008 21.7844 46.9898 22.4311 49.9356 23.4832V25.9815M35.6472 27.6141C34.2122 25.3637 29.4255 21.3685 21.7581 23.3913V25.803" stroke="#0046CC" stroke-width="2" stroke-linejoin="round"></path><path d="M22.0791 42.3732V24.1687C26.1335 20.8586 32.5949 24.9961 35.3188 27.4786C43.9245 20.9416 48.6962 22.5482 50.0064 24.1687L49.5927 42.3732C45.3726 40.3046 38.3184 43.7867 35.3188 45.7863C30.9333 41.8145 24.665 41.8559 22.0791 42.3732Z" fill="#D9E8FE"></path><path d="M35.918 46.9261C30.9169 40.785 24.3958 41.548 21.7604 42.6972V25.803V23.3913C29.4277 21.3685 34.2145 25.3637 35.6494 27.6141M35.918 46.9261C37.1285 44.4746 41.6271 40.1966 49.9378 42.6972V25.9815V23.4832C46.992 22.4311 40.0103 21.7844 35.6494 27.6141M35.918 46.9261L35.6494 27.6141" stroke="#0046CC" stroke-width="2" stroke-linejoin="round"></path><path d="M26.5939 30.2814C27.5088 29.7899 29.9694 29.3634 32.4924 31.5896" stroke="#0046CC" stroke-width="2" stroke-linecap="round" stroke-linejoin="round"></path><path d="M44.7682 30.2814C43.8532 29.7899 41.3926 29.3634 38.8697 31.5896" stroke="#0046CC" stroke-width="2" stroke-linecap="round" stroke-linejoin="round"></path><path d="M26.5939 34.7884C27.5088 34.2969 29.9694 33.8705 32.4924 36.0966" stroke="#0046CC" stroke-width="2" stroke-linecap="round" stroke-linejoin="round"></path><path d="M44.7682 34.7884C43.8532 34.2969 41.3926 33.8705 38.8697 36.0966" stroke="#0046CC" stroke-width="2" stroke-linecap="round" stroke-linejoin="round"></path><path d="M11.8624 35.2424H3L6.95334 41.8892L11.8624 35.2424Z" fill="#0026D0" stroke="#0026D0" stroke-width="2" stroke-linecap="round" stroke-linejoin="round"></path><path d="M59.556 40.9666L68.4185 40.9666L64.4651 34.3198L59.556 40.9666Z" fill="#0026D0" stroke="#0026D0" stroke-width="2" stroke-linecap="round" stroke-linejoin="round"></path></svg>