<svg xmlns="http://www.w3.org/2000/svg" width="72" height="72" viewBox="0 0 72 72" fill="none"><path d="M63.1632 35.9961C63.1632 51 51.0001 63.1631 35.9962 63.1631C20.9923 63.1631 8.82922 51 8.82922 35.9961C8.82922 20.9922 20.9923 8.8291 35.9962 8.8291C51.0001 8.8291 63.1632 20.9922 63.1632 35.9961Z" fill="#D9E8FE" stroke="#0046CC" stroke-width="2.5"></path><path d="M63.4132 35.9961C63.4132 51.1381 51.1382 63.4131 35.9962 63.4131C20.8542 63.4131 8.57922 51.1381 8.57922 35.9961C8.57922 20.8541 20.8542 8.5791 35.9962 8.5791C51.1382 8.5791 63.4132 20.8541 63.4132 35.9961Z" fill="#D9E8FE" stroke="#0046CC" stroke-width="2"></path><path d="M56.0883 36.0025C56.0883 47.0944 47.0966 56.0861 36.0047 56.0861C24.9129 56.0861 15.9211 47.0944 15.9211 36.0025C15.9211 24.9107 24.9129 15.9189 36.0047 15.9189C47.0966 15.9189 56.0883 24.9107 56.0883 36.0025Z" fill="#F9FAFC" stroke="#0046CC" stroke-width="2"></path><ellipse cx="35.9859" cy="31.4682" rx="4.7415" ry="4.63228" fill="#0046CC"></ellipse><path d="M26.8192 43.8046C26.8192 39.783 30.0793 36.5229 34.1008 36.5229H37.8714C41.8929 36.5229 45.153 39.783 45.153 43.8046C45.153 44.5586 44.5417 45.1699 43.7877 45.1699H28.1845C27.4305 45.1699 26.8192 44.5586 26.8192 43.8046Z" fill="#0046CC"></path><mask id="path-6-outside-1_3646_31384" maskUnits="userSpaceOnUse" x="32.0709" y="0" width="8" height="24" fill="black"><rect fill="white" x="32.0709" width="8" height="24"></rect><path d="M35.0709 3H36.9043V23.1669H35.0709V3Z"></path></mask><path d="M35.0709 3H36.9043V23.1669H35.0709V3Z" fill="#0046CC"></path><path d="M35.0709 3V0.5H32.5709V3H35.0709ZM36.9043 3H39.4043V0.5H36.9043V3ZM35.0709 5.5H36.9043V0.5H35.0709V5.5ZM34.4043 3V23.1669H39.4043V3H34.4043ZM37.5709 23.1669V3H32.5709V23.1669H37.5709Z" fill="#F9FAFC" mask="url(#path-6-outside-1_3646_31384)"></path><mask id="path-8-outside-2_3646_31384" maskUnits="userSpaceOnUse" x="32.0709" y="47.8325" width="8" height="24" fill="black"><rect fill="white" x="32.0709" y="47.8325" width="8" height="24"></rect><path d="M35.0709 48.8325H36.9043V68.9994H35.0709V48.8325Z"></path></mask><path d="M35.0709 48.8325H36.9043V68.9994H35.0709V48.8325Z" fill="#0046CC"></path><path d="M35.0709 48.8325V48.3325H32.5709V48.8325H35.0709ZM36.9043 48.8325H39.4043V48.3325H36.9043V48.8325ZM36.9043 68.9994V71.4994H39.4043V68.9994H36.9043ZM35.0709 68.9994H32.5709V71.4994H35.0709V68.9994ZM35.0709 49.3325H36.9043V48.3325H35.0709V49.3325ZM34.4043 48.8325V68.9994H39.4043V48.8325H34.4043ZM36.9043 66.4994H35.0709V71.4994H36.9043V66.4994ZM37.5709 68.9994V48.8325H32.5709V68.9994H37.5709Z" fill="#F9FAFC" mask="url(#path-8-outside-2_3646_31384)"></path><rect x="47.579" y="38.1675" width="4.33335" height="22.6669" transform="rotate(-90 47.579 38.1675)" fill="#0046CC" stroke="#F9FAFC" stroke-width="2.5"></rect><rect x="1.75024" y="38.1675" width="4.33335" height="22.6669" transform="rotate(-90 1.75024 38.1675)" fill="#0046CC" stroke="#F9FAFC" stroke-width="2.5"></rect></svg>