<svg xmlns="http://www.w3.org/2000/svg" width="56" height="56" viewBox="0 0 56 56" fill="none"><path d="M48.3825 5.70253C45.8814 4.25488 42.6834 5.11624 41.2413 7.62705C40.2783 9.30159 40.3583 11.2773 41.2493 12.8434L33.4002 22.9138C32.1921 22.3325 30.8441 21.9982 29.4171 21.9982C29.1431 21.9982 28.8721 22.0163 28.6041 22.0394L26.803 16.319C28.3161 15.043 29.0501 12.9679 28.4971 10.929C27.74 8.13102 24.867 6.47957 22.0799 7.24054C19.2929 8.00051 17.6488 10.8848 18.4058 13.6827C18.9959 15.8602 20.8699 17.3259 22.9849 17.5177L24.79 23.2521C22.0289 24.8594 20.1659 27.8511 20.1659 31.2855C20.1659 31.6399 20.1899 31.9862 20.2279 32.3296L14.1077 34.4388C12.6197 32.7693 10.1847 32.1679 8.04961 33.1518C5.42456 34.3605 4.27353 37.4767 5.47756 40.112C6.68158 42.7473 9.78565 43.9028 12.4097 42.6941C14.2267 41.8568 15.3138 40.1029 15.4258 38.2306L21.5329 36.1264C23.1589 38.7888 26.077 40.5728 29.4171 40.5728C30.9981 40.5728 32.4841 40.1742 33.7872 39.4705L37.1362 43.3817C36.2682 45.1005 36.3602 47.2288 37.5833 48.8812C39.3053 51.2073 42.5804 51.6932 44.8974 49.9645C47.2155 48.2347 47.6975 44.9479 45.9764 42.6208C44.6044 40.7675 42.2524 40.1059 40.1793 40.7776L36.8132 36.8472C37.9723 35.2962 38.6673 33.3756 38.6673 31.2875C38.6673 29.0447 37.8753 26.9887 36.5572 25.3834L44.4154 15.301C46.6475 15.9054 49.0895 14.9808 50.2995 12.8746C51.7426 10.3597 50.8845 7.15019 48.3825 5.70253Z" stroke="white" stroke-width="1.5"></path></svg>