<svg xmlns="http://www.w3.org/2000/svg" width="72" height="72" viewBox="0 0 72 72" fill="none"><g clip-path="url(#clip0_3646_31675)"><path d="M65.2144 34.6793L66.4204 33.4962L66.8364 31.9226L67.9835 33.0773L69.6195 33.499L68.392 34.602L67.9974 36.2558L66.8289 35.0208L65.2144 34.6793Z" fill="#E0ECFF" fill-opacity="0.8"></path><path d="M1.81104 3.29953L3.08808 2.09725L3.53208 0.344144L4.79324 1.64035L6.5003 2.04305L5.22327 3.24522L4.77917 4.99835L3.51811 3.70212L1.81104 3.29953Z" fill="#0046CC"></path><path d="M64.864 8.69637L65.8288 7.74981L66.1673 6.45503L67.1077 7.40713L68.4876 7.72545L67.4517 8.69107L67.1133 9.98572L66.1728 9.03375L64.864 8.69637Z" fill="#E0ECFF" fill-opacity="0.8"></path><ellipse cx="30.2394" cy="17.5658" rx="10.815" ry="10.5658" fill="#E6F0FF" stroke="#0046CC" stroke-width="2"></ellipse><path d="M50.4407 39.2447C50.4407 31.0923 44.5484 29.095 36.396 29.095H24.1006C18.3542 29.095 13.3746 32.3786 10.936 37.1719C10.501 38.2555 9.79936 40.6179 10.4734 41.3984" stroke="#0046CC" stroke-width="2" stroke-linecap="round" stroke-linejoin="round"></path><path d="M44.0825 39.7801C50.8508 39.7801 56.3975 34.4108 56.3975 27.7143C56.3975 21.0177 50.8508 15.6484 44.0825 15.6484C37.3143 15.6484 31.7676 21.0177 31.7676 27.7143C31.7676 34.4108 37.3143 39.7801 44.0825 39.7801Z" stroke="white" stroke-width="3"></path><path d="M39.1816 37.7434C29.5167 37.7434 21.6816 45.5784 21.6816 55.2434V55.9663C21.6816 58.4516 23.6964 60.4663 26.1816 60.4663H61.9995C64.4848 60.4663 66.4995 58.4516 66.4995 55.9663V55.2434C66.4995 45.5784 58.6645 37.7434 48.9995 37.7434H39.1816Z" stroke="white" stroke-width="3"></path><ellipse cx="44.0814" cy="27.7143" rx="10.815" ry="10.5658" fill="white" stroke="#0046CC" stroke-width="2"></ellipse><path d="M33.1264 58.9662H62.2322C63.7608 58.9662 65 57.7271 65 56.1985V54.0045C65 45.8521 58.3911 39.2433 50.2387 39.2433H37.9433C33.764 39.2433 29.9904 40.9801 27.3048 43.7714" stroke="#0046CC" stroke-width="2" stroke-linecap="round"></path><path d="M13.5337 51.9962C14.884 56.449 17.28 58.2085 17.7103 58.539C17.7562 58.5742 17.8043 58.6141 17.8525 58.6459C21.3591 60.9588 24.7412 60.9146 27.0122 60.5112C27.2556 60.4679 27.2806 60.1353 27.0534 60.038C23.4363 58.4882 21.4152 56.1895 20.3022 54.4283C18.974 52.1458 18.7124 50.1857 18.7149 49.7947C18.7152 49.7494 18.7197 49.7031 18.7221 49.6578C18.7372 49.3686 18.9306 49.0452 19.2582 48.9459L22.0795 48.0903C22.2926 48.0257 22.3212 47.7356 22.1248 47.6306L14.0173 43.2962C13.896 43.2313 13.7451 43.2766 13.6796 43.3976L9.32972 51.4323C9.22338 51.6288 9.40837 51.8554 9.62212 51.7906L12.4391 50.9364C12.6515 50.872 12.8146 50.8998 12.9992 50.9985C13.1837 51.0972 13.2975 51.2173 13.3619 51.4298C13.4263 51.6422 13.4693 51.7838 13.5337 51.9962Z" fill="#E6F0FF" stroke="#0046CC" stroke-width="2"></path></g><defs><clipPath id="clip0_3646_31675"><rect width="72" height="72" fill="white"></rect></clipPath></defs></svg>