<svg xmlns="http://www.w3.org/2000/svg" width="72" height="72" viewBox="0 0 72 72" fill="none"><g clip-path="url(#clip0_3646_31741)"><path d="M15.584 60.5461V27.7895L36.5355 12.7937L57.168 27.7895V60.5461H45.0438V47.4647H28.4527V60.5461H15.584Z" fill="#E6F0FF"></path><path fill-rule="evenodd" clip-rule="evenodd" d="M58.3268 62.0318H43.3475V47.9476H28.6481V62.0318H13.668V26.4868H15.9985V59.698H26.3184V45.6139H45.678V59.698H55.9963V26.4868H58.3268V62.0318Z" fill="#0046CC"></path><path fill-rule="evenodd" clip-rule="evenodd" d="M65.2442 33.7547L36.0004 12.8324L6.75658 33.7547L5.40039 31.8615L36.0004 9.96826L66.6004 31.8615L65.2442 33.7547Z" fill="#0046CC"></path><path fill-rule="evenodd" clip-rule="evenodd" d="M56.002 20.6426H58.3324V14.3177H56.002V20.6426Z" fill="#0046CC"></path><path fill-rule="evenodd" clip-rule="evenodd" d="M38.3234 38.4741C38.3234 37.1767 37.2692 36.124 35.9693 36.124C34.6694 36.124 33.6151 37.1767 33.6151 38.4741C33.6151 39.7797 34.6694 40.8323 35.9693 40.8323C37.2692 40.8323 38.3234 39.7797 38.3234 38.4741Z" fill="#0046CC"></path><path fill-rule="evenodd" clip-rule="evenodd" d="M41.6809 34.3899C40.053 32.8804 37.9313 32.048 35.7069 32.048C33.6767 32.048 31.7705 32.7172 30.1949 33.9901L28.6738 32.1051C30.6567 30.5058 33.1545 29.6245 35.7069 29.6245C38.5442 29.6245 41.2508 30.6853 43.3284 32.6192L41.6809 34.3899Z" fill="#0046CC"></path><path fill-rule="evenodd" clip-rule="evenodd" d="M45.9223 29.7364C43.0908 27.1008 39.4017 25.6564 35.5346 25.6564C32.0054 25.6564 28.6908 26.8233 25.9507 29.0347L24.4297 27.1497C27.5599 24.6283 31.5036 23.2329 35.5346 23.2329C40.0153 23.2329 44.2895 24.9139 47.5698 27.9576L45.9223 29.7364Z" fill="#0046CC"></path><path d="M65.2144 34.6793L66.4204 33.4962L66.8364 31.9226L67.9835 33.0773L69.6195 33.499L68.392 34.602L67.9974 36.2558L66.8289 35.0208L65.2144 34.6793Z" fill="#E0ECFF" fill-opacity="0.8"></path><path d="M1.81006 3.29953L3.0871 2.09725L3.5311 0.344144L4.79227 1.64035L6.49932 2.04305L5.22229 3.24522L4.77819 4.99835L3.51713 3.70212L1.81006 3.29953Z" fill="#0046CC"></path><path d="M64.8649 8.69637L65.8296 7.74981L66.1681 6.45503L67.1085 7.40713L68.4884 7.72545L67.4526 8.69107L67.1142 9.98572L66.1737 9.03375L64.8649 8.69637Z" fill="#E0ECFF" fill-opacity="0.8"></path></g><defs><clipPath id="clip0_3646_31741"><rect width="72" height="72" fill="white"></rect></clipPath></defs></svg>