<svg xmlns="http://www.w3.org/2000/svg" width="72" height="72" viewBox="0 0 72 72" fill="none"><g clip-path="url(#clip0_3646_31730)"><rect x="12.6405" y="7.15784" width="41.9119" height="62" rx="3" stroke="#0046CC" stroke-width="2"></rect><path d="M46.0419 38.1578C46.0419 37.6856 45.8544 37.2342 45.521 36.9009C44.8266 36.2064 43.7016 36.2064 43.0071 36.9009L40.7085 39.1995L40.7085 25.7134C40.7085 24.7342 39.9099 23.9356 38.9308 23.9356C37.9516 23.9356 37.153 24.7342 37.153 25.7134L37.153 39.1995L34.8544 36.9009C34.1599 36.2064 33.0349 36.2064 32.3405 36.9009C31.646 37.5953 31.646 38.7203 32.3405 39.4147L37.6738 44.7481C38.3683 45.4425 39.4933 45.4425 40.1877 44.7481L45.521 39.4147C45.8544 39.0814 46.0419 38.63 46.0419 38.1578ZM35.3752 23.9356C35.3752 23.4772 35.2016 23.0259 34.8544 22.6786L29.521 17.3453C28.8266 16.6509 27.7016 16.6509 27.0072 17.3453L21.6738 22.6786C21.3405 23.012 21.153 23.4634 21.153 23.9356C21.153 24.4078 21.3405 24.8592 21.6738 25.1925C22.3683 25.887 23.4933 25.887 24.1877 25.1925L26.4863 22.8939L26.4863 36.38C26.4863 37.3592 27.2849 38.1578 28.2641 38.1578C29.2433 38.1578 30.0419 37.3592 30.0419 36.38L30.0419 22.8939L32.3405 25.1925C33.0349 25.887 34.1599 25.887 34.8544 25.1925C35.2016 24.8453 35.3752 24.3939 35.3752 23.9356Z" fill="#E6F0FF" stroke="#0046CC" stroke-width="1.4"></path><circle cx="33.5952" cy="61.8967" r="2.47728" fill="#0046CC"></circle><path d="M68.8011 40.6904L70.1411 39.3758L70.6033 37.6274L71.8779 38.9104L73.6957 39.3789L72.3318 40.6045L71.8934 42.442L70.595 41.0698L68.8011 40.6904Z" fill="#E0ECFF" fill-opacity="0.8"></path><path d="M-1.64704 5.82393L-0.2281 4.48806L0.265231 2.54016L1.66653 3.98039L3.56325 4.42784L2.14433 5.76359L1.65089 7.71151L0.249706 6.27125L-1.64704 5.82393Z" fill="#0046CC"></path><path d="M68.4118 11.8204L69.4838 10.7687L69.8599 9.33004L70.9048 10.3879L72.438 10.7416L71.287 11.8145L70.911 13.253L69.866 12.1953L68.4118 11.8204Z" fill="#E0ECFF" fill-opacity="0.8"></path></g><defs><clipPath id="clip0_3646_31730"><rect width="72" height="72" fill="white"></rect></clipPath></defs></svg>