<svg width="137" height="136" viewBox="0 0 137 136" fill="none" xmlns="http://www.w3.org/2000/svg">
<g filter="url(#filter0_dd_3646_32011)">
<circle cx="68.835" cy="64" r="56" fill="white"/>
</g>
<path d="M44.9951 71.2963C45.3637 76.089 42.2002 77.103 39.1137 76.4918C36.6025 75.6193 36.675 72.0928 36.6025 69.8932V53.1471C36.55 49.242 38.7734 48.5232 39.8917 48.6519C43.8789 48.1997 44.9553 50.3707 44.9951 51.5128V71.2963Z" fill="#E6F0FF"/>
<path d="M44.9951 71.2963C45.3637 76.089 42.2002 77.103 39.1137 76.4918C36.6025 75.6193 36.675 72.0928 36.6025 69.8933V53.1471C36.55 49.242 38.7734 48.5232 39.8917 48.6519C43.8789 48.1997 44.9553 50.3707 44.9951 51.5128M44.9951 71.2963V51.5128M44.9951 71.2963H50.0553L56.1971 81.8772C57.6811 83.9111 62.2383 85.7949 65.1083 83.966M44.9951 51.5128H53.1112C54.7975 49.8386 59.3146 46.9925 63.8925 49.0015M65.1083 83.966L60.7186 77.1774M65.1083 83.966C67.4363 85.0927 72.3814 86.2525 73.5387 81.8772M67.4529 73.6021L73.0173 80.8927C74.9337 82.3629 79.1978 84.2064 80.9226 79.8188M74.8351 70.6906L80.5724 79.0329C83.159 80.1605 88.2605 81.0246 87.9739 75.46M92.0209 50.5744L80.9226 44.5514C78.47 43.1259 72.3424 41.3986 67.4529 45.8938L57.246 55.3366C56.5112 56.3973 55.6218 58.8058 57.9426 59.9543C59.6786 60.7942 64.0662 61.5626 67.7294 57.9165C69.5414 55.7596 74.0121 52.8814 77.3987 58.6241L85.9901 72.7784C86.5472 73.4602 88.6565 74.7496 92.6373 74.4536" stroke="#0026D0" stroke-width="2" stroke-linecap="round"/>
<path d="M92.6514 74.4819V50.5929C92.6514 49.1722 94.2533 48.1063 94.8917 48.0002H98.2265C99.2419 48.019 101.23 48.871 101.059 52.1291V72.7795C101.038 74.1355 100.562 77.0382 98.8294 77.801C94.6361 78.3129 92.9635 75.8016 92.6514 74.4819Z" fill="#E6F0FF" stroke="#0026D0" stroke-width="2" stroke-linecap="round"/>
<path d="M44.0031 41.3048L42.7673 42.5172L42.3411 44.1296L41.1656 42.9464L39.4892 42.5143L40.747 41.3841L41.1513 39.6894L42.3487 40.9549L44.0031 41.3048Z" fill="#E0ECFF" fill-opacity="0.8"/>
<path d="M53.593 95.9814L52.2845 97.2134L51.8295 99.0098L50.5372 97.6816L48.788 97.2689L50.0966 96.0371L50.5516 94.2407L51.8438 95.5689L53.593 95.9814Z" fill="#0046CC"/>
<path d="M96.7643 33.809L97.7529 32.8391L98.0997 31.5124L99.0634 32.488L100.477 32.8142L99.4159 33.8036L99.0691 35.1302L98.1054 34.1547L96.7643 33.809Z" fill="#E0ECFF" fill-opacity="0.8"/>
<defs>
<filter id="filter0_dd_3646_32011" x="0.834961" y="0" width="136" height="136" filterUnits="userSpaceOnUse" color-interpolation-filters="sRGB">
<feFlood flood-opacity="0" result="BackgroundImageFix"/>
<feColorMatrix in="SourceAlpha" type="matrix" values="0 0 0 0 0 0 0 0 0 0 0 0 0 0 0 0 0 0 127 0" result="hardAlpha"/>
<feOffset dy="4"/>
<feGaussianBlur stdDeviation="6"/>
<feComposite in2="hardAlpha" operator="out"/>
<feColorMatrix type="matrix" values="0 0 0 0 0.886275 0 0 0 0 0.909804 0 0 0 0 0.941176 0 0 0 1 0"/>
<feBlend mode="normal" in2="BackgroundImageFix" result="effect1_dropShadow_3646_32011"/>
<feColorMatrix in="SourceAlpha" type="matrix" values="0 0 0 0 0 0 0 0 0 0 0 0 0 0 0 0 0 0 127 0" result="hardAlpha"/>
<feOffset/>
<feGaussianBlur stdDeviation="2"/>
<feComposite in2="hardAlpha" operator="out"/>
<feColorMatrix type="matrix" values="0 0 0 0 0.886275 0 0 0 0 0.909804 0 0 0 0 0.941176 0 0 0 0.75 0"/>
<feBlend mode="normal" in2="effect1_dropShadow_3646_32011" result="effect2_dropShadow_3646_32011"/>
<feBlend mode="normal" in="SourceGraphic" in2="effect2_dropShadow_3646_32011" result="shape"/>
</filter>
</defs>
</svg>
