<svg xmlns="http://www.w3.org/2000/svg" width="72" height="72" viewBox="0 0 72 72" fill="none"><g clip-path="url(#clip0_3646_31696)"><path d="M32.2705 35.6157L65.2093 55.6052C65.8145 55.9725 66.6028 55.7796 66.9701 55.1744C67.3374 54.5692 67.1445 53.7809 66.5393 53.4136L33.6005 33.4241C32.9954 33.0568 32.207 33.2497 31.8397 33.8549C31.4725 34.46 31.6654 35.2484 32.2705 35.6157Z" fill="#0046CC"></path><path d="M34.0942 34.9752C38.4531 29.4289 47.8284 28.5525 55.8631 33.1917C64.1852 37.9961 68.0631 46.9658 64.9291 53.5603C64.6252 54.1997 64.8972 54.9644 65.5365 55.2682C66.1759 55.5721 66.9405 55.3001 67.2444 54.6608C71.009 46.7396 66.5358 36.3931 57.1449 30.9716C48.0857 25.7409 37.2985 26.7493 32.0786 33.3912C31.6412 33.9478 31.7378 34.7536 32.2944 35.191C32.8509 35.6284 33.6568 35.5319 34.0942 34.9753L34.0942 34.9752Z" fill="#0046CC"></path><path d="M25.0855 18.8233C25.0855 21.7872 22.6829 24.1899 19.7189 24.1899C16.7549 24.1899 14.3523 21.7872 14.3523 18.8233C14.3523 15.8593 16.7549 13.4567 19.7189 13.4567C22.6829 13.4567 25.0855 15.8593 25.0855 18.8233Z" fill="#E6F0FF"></path><path d="M24.9499 18.8233C24.9499 15.9339 22.6077 13.5917 19.7183 13.5917C16.8289 13.5917 14.4867 15.9339 14.4867 18.8233C14.4867 21.7127 16.8289 24.0549 19.7183 24.0549C22.6077 24.0549 24.9499 21.7127 24.9499 18.8233ZM27.5135 18.8233C27.5135 23.1285 24.0236 26.6185 19.7183 26.6185C15.413 26.6185 11.9231 23.1285 11.9231 18.8233C11.9231 14.518 15.413 11.0281 19.7183 11.0281C24.0236 11.0281 27.5135 14.518 27.5135 18.8233ZM18.4365 5.18842H21.0001V7.11111H18.4365V5.18842ZM21.0001 7.11111C21.0001 8.82018 18.4365 8.82018 18.4365 7.11111V5.18842C18.4365 3.47935 21.0001 3.47935 21.0001 5.18842V7.11111ZM18.4365 30.9844H21.0001V32.9071H18.4365V30.9844ZM21.0001 32.9071C21.0001 34.6162 18.4365 34.6162 18.4365 32.9071V30.9844C18.4365 29.2754 21.0001 29.2754 21.0001 30.9844V32.9071ZM9.01167 10.1539L10.8244 8.3412L12.1844 9.70116L10.3716 11.5139L9.01167 10.1539ZM12.1844 9.70116C13.3929 10.9097 11.5801 12.7224 10.3716 11.5139L9.01167 10.1539C7.80317 8.94542 9.61589 7.1327 10.8244 8.3412L12.1844 9.70116ZM27.2522 28.3944L29.0649 26.5817L30.4249 27.9416L28.6122 29.7543L27.2522 28.3944ZM30.4249 27.9416C31.6334 29.1501 29.8207 30.9628 28.6122 29.7543L27.2522 28.3944C26.0437 27.1859 27.8564 25.3732 29.0649 26.5817L30.4249 27.9416ZM5.85895 20.3296V17.766H7.78164V20.3296H5.85895ZM7.78164 17.766C9.49071 17.766 9.49071 20.3296 7.78164 20.3296H5.85895C4.14988 20.3296 4.14988 17.766 5.85895 17.766H7.78164ZM33.5777 17.766C35.2867 17.766 35.2867 20.3296 33.5777 20.3296H31.655C29.9459 20.3296 29.9459 17.766 31.655 17.766H33.5777ZM10.3717 26.5817C11.5802 25.3732 13.3929 27.1859 12.1844 28.3944L10.8245 29.7543C9.61595 30.9628 7.80323 29.1501 9.01173 27.9416L10.3717 26.5817ZM28.6122 8.34114C29.8207 7.13264 31.6334 8.94536 30.4249 10.1539L29.0649 11.5138C27.8564 12.7223 26.0437 10.9096 27.2522 9.7011L28.6122 8.34114Z" fill="#0046CC"></path><path d="M47.4064 45.2134L35.0108 66.0265C34.6486 66.6347 34.848 67.4215 35.4562 67.7836C36.0644 68.1458 36.8511 67.9465 37.2133 67.3383L49.6089 46.5252C49.9711 45.917 49.7717 45.1303 49.1635 44.7681C48.5553 44.4059 47.7686 44.6052 47.4064 45.2134ZM57.4144 27.8133L55.6808 30.8159C55.3268 31.4289 55.5368 32.2129 56.15 32.5668C56.7631 32.9208 57.547 32.7108 57.9009 32.0977L59.6345 29.0951C59.9885 28.4821 59.7785 27.6981 59.1653 27.3442C58.5522 26.9903 57.7683 27.2002 57.4144 27.8133Z" fill="#0046CC"></path><path d="M17.271 56.4471L18.611 55.1325L19.0732 53.3841L20.3478 54.6671L22.1656 55.1356L20.8017 56.3612L20.3632 58.1988L19.0649 56.8266L17.271 56.4471Z" fill="#E0ECFF" fill-opacity="0.8"></path><path d="M72.2708 9.80009L70.8518 11.136L70.3585 13.0839L68.9572 11.6436L67.0605 11.1962L68.4794 9.86044L68.9728 7.91252L70.374 9.35277L72.2708 9.80009Z" fill="#0046CC"></path><path d="M4.21191 3.8036L3.13995 4.85535L2.76386 6.29399L1.71895 5.2361L0.185731 4.88241L1.3367 3.8095L1.7127 2.371L2.7577 3.42874L4.21191 3.8036Z" fill="#E0ECFF" fill-opacity="0.8"></path></g><defs><clipPath id="clip0_3646_31696"><rect width="72" height="72" fill="white"></rect></clipPath></defs></svg>