<svg width="251" height="20" viewBox="0 0 251 20" fill="none" xmlns="http://www.w3.org/2000/svg">
<g clip-path="url(#clip0_10_10)">
<path d="M4.74854 11.165C4.74854 9.95736 4.92399 8.82715 5.2749 7.77441C5.63037 6.72168 6.14079 5.79883 6.80615 5.00586H8.20752C7.57406 5.86263 7.0887 6.82422 6.75146 7.89062C6.41423 8.95247 6.24561 10.0394 6.24561 11.1514C6.24561 12.2633 6.41423 13.3411 6.75146 14.3848C7.0887 15.4284 7.5695 16.3717 8.19385 17.2148H6.80615C6.13623 16.4401 5.62581 15.5355 5.2749 14.501C4.92399 13.4665 4.74854 12.3545 4.74854 11.165ZM9.95068 15V5.00586H11.5845V13.5986H15.8159V15H9.95068ZM22.0981 15L21.7769 13.9473H21.7222C21.3576 14.4076 20.9907 14.722 20.6216 14.8906C20.2524 15.0547 19.7785 15.1367 19.1997 15.1367C18.4569 15.1367 17.8758 14.9362 17.4565 14.5352C17.0418 14.1341 16.8345 13.5667 16.8345 12.833C16.8345 12.0537 17.1239 11.4658 17.7026 11.0693C18.2814 10.6729 19.1632 10.4564 20.3481 10.4199L21.6538 10.3789V9.97559C21.6538 9.49251 21.5399 9.13249 21.312 8.89551C21.0887 8.65397 20.7401 8.5332 20.2661 8.5332C19.8787 8.5332 19.5073 8.59017 19.1519 8.7041C18.7964 8.81803 18.4546 8.95247 18.1265 9.10742L17.6069 7.95898C18.0171 7.74479 18.466 7.58301 18.9536 7.47363C19.4412 7.3597 19.9015 7.30273 20.3345 7.30273C21.2961 7.30273 22.0207 7.51237 22.5083 7.93164C23.0005 8.35091 23.2466 9.00944 23.2466 9.90723V15H22.0981ZM19.7056 13.9062C20.2889 13.9062 20.756 13.7445 21.1069 13.4209C21.4624 13.0928 21.6401 12.6348 21.6401 12.0469V11.3906L20.6694 11.4316C19.9129 11.459 19.3615 11.5866 19.0151 11.8145C18.6733 12.0378 18.5024 12.3818 18.5024 12.8467C18.5024 13.1839 18.6027 13.446 18.8032 13.6328C19.0037 13.8151 19.3045 13.9062 19.7056 13.9062ZM30.5679 12.8467C30.5679 13.585 30.299 14.1523 29.7612 14.5488C29.2235 14.9408 28.4533 15.1367 27.4507 15.1367C26.4435 15.1367 25.6346 14.984 25.0239 14.6787V13.291C25.9126 13.7012 26.7397 13.9062 27.5054 13.9062C28.4943 13.9062 28.9888 13.6077 28.9888 13.0107C28.9888 12.8193 28.9341 12.6598 28.8247 12.5322C28.7153 12.4046 28.5353 12.2725 28.2847 12.1357C28.034 11.999 27.6854 11.8441 27.2388 11.6709C26.3683 11.3337 25.7782 10.9964 25.4683 10.6592C25.1629 10.3219 25.0103 9.88444 25.0103 9.34668C25.0103 8.69954 25.27 8.19824 25.7896 7.84277C26.3136 7.48275 27.0246 7.30273 27.9224 7.30273C28.811 7.30273 29.6519 7.48275 30.4448 7.84277L29.9253 9.05273C29.1095 8.71549 28.4237 8.54688 27.8677 8.54688C27.02 8.54688 26.5962 8.78841 26.5962 9.27148C26.5962 9.50846 26.7056 9.70898 26.9243 9.87305C27.1476 10.0371 27.6307 10.2627 28.3735 10.5498C28.9979 10.7913 29.4513 11.0124 29.7339 11.2129C30.0164 11.4134 30.2261 11.6458 30.3628 11.9102C30.4995 12.1699 30.5679 12.4821 30.5679 12.8467ZM35.1274 13.8379C35.5194 13.8379 35.9113 13.7764 36.3032 13.6533V14.8633C36.1255 14.9408 35.8953 15.0046 35.6128 15.0547C35.3348 15.1094 35.0454 15.1367 34.7446 15.1367C33.2225 15.1367 32.4614 14.3346 32.4614 12.7305V8.65625H31.4292V7.94531L32.5366 7.35742L33.0835 5.75781H34.0747V7.43945H36.228V8.65625H34.0747V12.7031C34.0747 13.0905 34.1704 13.3776 34.3618 13.5645C34.5578 13.7467 34.813 13.8379 35.1274 13.8379ZM46.7896 15L46.564 14.0088H46.4819C46.2586 14.3597 45.9396 14.6354 45.5249 14.8359C45.1147 15.0365 44.6453 15.1367 44.1167 15.1367C43.2007 15.1367 42.5171 14.9089 42.0659 14.4531C41.6147 13.9974 41.3892 13.307 41.3892 12.3818V7.43945H43.0093V12.1016C43.0093 12.6803 43.1278 13.1156 43.3647 13.4072C43.6017 13.6943 43.9731 13.8379 44.479 13.8379C45.1535 13.8379 45.6479 13.6374 45.9624 13.2363C46.2814 12.8307 46.4409 12.154 46.4409 11.2061V7.43945H48.0542V15H46.7896ZM54.1792 15.1367C53.2222 15.1367 52.4793 14.7926 51.9507 14.1045H51.855C51.9188 14.7425 51.9507 15.1299 51.9507 15.2666V18.3633H50.3442V7.43945H51.6431C51.6795 7.58073 51.7547 7.91797 51.8687 8.45117H51.9507C52.452 7.68555 53.2039 7.30273 54.2065 7.30273C55.1499 7.30273 55.8836 7.64453 56.4077 8.32812C56.9364 9.01172 57.2007 9.97103 57.2007 11.2061C57.2007 12.4411 56.9318 13.4049 56.394 14.0977C55.8608 14.7904 55.1226 15.1367 54.1792 15.1367ZM53.7896 8.61523C53.1515 8.61523 52.6844 8.80208 52.3882 9.17578C52.0965 9.54948 51.9507 10.1465 51.9507 10.9668V11.2061C51.9507 12.1266 52.0965 12.7943 52.3882 13.209C52.6799 13.6191 53.1561 13.8242 53.8169 13.8242C54.3729 13.8242 54.8013 13.5964 55.1021 13.1406C55.4028 12.6849 55.5532 12.0355 55.5532 11.1924C55.5532 10.3447 55.4028 9.70443 55.1021 9.27148C54.8058 8.83398 54.3683 8.61523 53.7896 8.61523ZM61.6167 15.1367C60.6733 15.1367 59.9373 14.7949 59.4087 14.1113C58.88 13.4277 58.6157 12.4684 58.6157 11.2334C58.6157 9.99382 58.8823 9.02995 59.4155 8.3418C59.9533 7.64909 60.6961 7.30273 61.644 7.30273C62.6375 7.30273 63.394 7.6696 63.9136 8.40332H63.9956C63.9181 7.861 63.8794 7.43262 63.8794 7.11816V4.36328H65.4927V15H64.2349L63.9546 14.0088H63.8794C63.3644 14.7607 62.6102 15.1367 61.6167 15.1367ZM62.0474 13.8379C62.7082 13.8379 63.189 13.6533 63.4897 13.2842C63.7905 12.9105 63.9455 12.3066 63.9546 11.4727V11.2471C63.9546 10.2946 63.7996 9.61784 63.4897 9.2168C63.1799 8.81576 62.6945 8.61523 62.0337 8.61523C61.4686 8.61523 61.0334 8.84538 60.728 9.30566C60.4227 9.76139 60.27 10.4131 60.27 11.2607C60.27 12.0993 60.4181 12.7396 60.7144 13.1816C61.0106 13.6191 61.4549 13.8379 62.0474 13.8379ZM72.52 15L72.1987 13.9473H72.144C71.7795 14.4076 71.4126 14.722 71.0435 14.8906C70.6743 15.0547 70.2004 15.1367 69.6216 15.1367C68.8787 15.1367 68.2977 14.9362 67.8784 14.5352C67.4637 14.1341 67.2563 13.5667 67.2563 12.833C67.2563 12.0537 67.5457 11.4658 68.1245 11.0693C68.7033 10.6729 69.5851 10.4564 70.77 10.4199L72.0757 10.3789V9.97559C72.0757 9.49251 71.9618 9.13249 71.7339 8.89551C71.5106 8.65397 71.1619 8.5332 70.688 8.5332C70.3006 8.5332 69.9292 8.59017 69.5737 8.7041C69.2183 8.81803 68.8765 8.95247 68.5483 9.10742L68.0288 7.95898C68.439 7.74479 68.8879 7.58301 69.3755 7.47363C69.8631 7.3597 70.3234 7.30273 70.7563 7.30273C71.7179 7.30273 72.4425 7.51237 72.9302 7.93164C73.4224 8.35091 73.6685 9.00944 73.6685 9.90723V15H72.52ZM70.1274 13.9062C70.7108 13.9062 71.1779 13.7445 71.5288 13.4209C71.8843 13.0928 72.062 12.6348 72.062 12.0469V11.3906L71.0913 11.4316C70.3348 11.459 69.7834 11.5866 69.437 11.8145C69.0952 12.0378 68.9243 12.3818 68.9243 12.8467C68.9243 13.1839 69.0246 13.446 69.2251 13.6328C69.4256 13.8151 69.7264 13.9062 70.1274 13.9062ZM78.7271 13.8379C79.119 13.8379 79.5109 13.7764 79.9028 13.6533V14.8633C79.7251 14.9408 79.495 15.0046 79.2124 15.0547C78.9344 15.1094 78.645 15.1367 78.3442 15.1367C76.8221 15.1367 76.061 14.3346 76.061 12.7305V8.65625H75.0288V7.94531L76.1362 7.35742L76.6831 5.75781H77.6743V7.43945H79.8276V8.65625H77.6743V12.7031C77.6743 13.0905 77.77 13.3776 77.9614 13.5645C78.1574 13.7467 78.4126 13.8379 78.7271 13.8379ZM84.7222 15.1367C83.5464 15.1367 82.6258 14.7949 81.9604 14.1113C81.2996 13.4232 80.9692 12.4775 80.9692 11.2744C80.9692 10.0394 81.2769 9.06868 81.8921 8.3623C82.5073 7.65592 83.3527 7.30273 84.4282 7.30273C85.4263 7.30273 86.2147 7.60579 86.7935 8.21191C87.3722 8.81803 87.6616 9.65202 87.6616 10.7139V11.582H82.6235C82.6463 12.3158 82.8446 12.8809 83.2183 13.2773C83.592 13.6693 84.1183 13.8652 84.7974 13.8652C85.244 13.8652 85.6587 13.8242 86.0415 13.7422C86.4289 13.6556 86.8436 13.5143 87.2856 13.3184V14.624C86.8937 14.8109 86.4972 14.943 86.0962 15.0205C85.6951 15.098 85.2371 15.1367 84.7222 15.1367ZM84.4282 8.51953C83.9178 8.51953 83.5076 8.68132 83.1978 9.00488C82.8924 9.32845 82.7101 9.80013 82.6509 10.4199H86.0825C86.0734 9.79557 85.923 9.32389 85.6313 9.00488C85.3397 8.68132 84.9386 8.51953 84.4282 8.51953ZM92.0366 15.1367C91.0933 15.1367 90.3573 14.7949 89.8286 14.1113C89.3 13.4277 89.0356 12.4684 89.0356 11.2334C89.0356 9.99382 89.3022 9.02995 89.8354 8.3418C90.3732 7.64909 91.116 7.30273 92.064 7.30273C93.0575 7.30273 93.814 7.6696 94.3335 8.40332H94.4155C94.3381 7.861 94.2993 7.43262 94.2993 7.11816V4.36328H95.9126V15H94.6548L94.3745 14.0088H94.2993C93.7843 14.7607 93.0301 15.1367 92.0366 15.1367ZM92.4673 13.8379C93.1281 13.8379 93.6089 13.6533 93.9097 13.2842C94.2104 12.9105 94.3654 12.3066 94.3745 11.4727V11.2471C94.3745 10.2946 94.2196 9.61784 93.9097 9.2168C93.5998 8.81576 93.1144 8.61523 92.4536 8.61523C91.8885 8.61523 91.4533 8.84538 91.1479 9.30566C90.8426 9.76139 90.6899 10.4131 90.6899 11.2607C90.6899 12.0993 90.8381 12.7396 91.1343 13.1816C91.4305 13.6191 91.8748 13.8379 92.4673 13.8379ZM108.552 11.2061C108.552 12.4411 108.236 13.4049 107.602 14.0977C106.969 14.7904 106.087 15.1367 104.957 15.1367C104.25 15.1367 103.626 14.9772 103.083 14.6582C102.541 14.3392 102.124 13.8812 101.833 13.2842C101.541 12.6872 101.395 11.9945 101.395 11.2061C101.395 9.98014 101.709 9.02311 102.338 8.33496C102.967 7.64681 103.854 7.30273 104.998 7.30273C106.091 7.30273 106.957 7.65592 107.595 8.3623C108.233 9.06413 108.552 10.012 108.552 11.2061ZM103.049 11.2061C103.049 12.9515 103.694 13.8242 104.984 13.8242C106.26 13.8242 106.898 12.9515 106.898 11.2061C106.898 9.47884 106.255 8.61523 104.97 8.61523C104.296 8.61523 103.806 8.83854 103.5 9.28516C103.2 9.73177 103.049 10.3721 103.049 11.2061ZM117.056 15H115.443V10.3516C115.443 9.76823 115.324 9.33301 115.087 9.0459C114.855 8.75879 114.484 8.61523 113.973 8.61523C113.294 8.61523 112.797 8.81576 112.483 9.2168C112.168 9.61784 112.011 10.29 112.011 11.2334V15H110.405V7.43945H111.663L111.888 8.43066H111.97C112.198 8.07064 112.522 7.79264 112.941 7.59668C113.36 7.40072 113.825 7.30273 114.335 7.30273C116.149 7.30273 117.056 8.22559 117.056 10.0713V15ZM119.052 14.1455C119.052 13.8128 119.139 13.5576 119.312 13.3799C119.485 13.2021 119.736 13.1133 120.064 13.1133C120.397 13.1133 120.65 13.2067 120.823 13.3936C120.996 13.5758 121.083 13.8265 121.083 14.1455C121.083 14.4691 120.994 14.7266 120.816 14.918C120.643 15.1048 120.392 15.1982 120.064 15.1982C119.736 15.1982 119.485 15.1048 119.312 14.918C119.139 14.7311 119.052 14.4736 119.052 14.1455ZM119.052 8.30762C119.052 7.61947 119.389 7.27539 120.064 7.27539C120.406 7.27539 120.661 7.36654 120.83 7.54883C120.998 7.73112 121.083 7.98405 121.083 8.30762C121.083 8.63118 120.994 8.88867 120.816 9.08008C120.643 9.26693 120.392 9.36035 120.064 9.36035C119.736 9.36035 119.485 9.26693 119.312 9.08008C119.139 8.89323 119.052 8.63574 119.052 8.30762ZM133.155 15L132.157 12.2246H128.335L127.358 15H125.635L129.375 4.96484H131.152L134.891 15H133.155ZM131.726 10.8164L130.79 8.0957C130.721 7.91341 130.625 7.6263 130.502 7.23438C130.384 6.84245 130.302 6.55534 130.256 6.37305C130.133 6.93359 129.953 7.54655 129.716 8.21191L128.814 10.8164H131.726ZM141.372 15L141.146 14.0088H141.064C140.841 14.3597 140.522 14.6354 140.107 14.8359C139.697 15.0365 139.227 15.1367 138.699 15.1367C137.783 15.1367 137.099 14.9089 136.648 14.4531C136.197 13.9974 135.971 13.307 135.971 12.3818V7.43945H137.591V12.1016C137.591 12.6803 137.71 13.1156 137.947 13.4072C138.184 13.6943 138.555 13.8379 139.061 13.8379C139.736 13.8379 140.23 13.6374 140.544 13.2363C140.863 12.8307 141.023 12.154 141.023 11.2061V7.43945H142.636V15H141.372ZM151.311 7.43945V8.32129L150.019 8.56055C150.138 8.72005 150.236 8.91602 150.313 9.14844C150.39 9.38086 150.429 9.62695 150.429 9.88672C150.429 10.666 150.16 11.279 149.623 11.7256C149.085 12.1722 148.344 12.3955 147.401 12.3955C147.159 12.3955 146.941 12.3773 146.745 12.3408C146.398 12.555 146.225 12.8057 146.225 13.0928C146.225 13.266 146.305 13.3958 146.464 13.4824C146.628 13.569 146.927 13.6123 147.36 13.6123H148.679C149.513 13.6123 150.147 13.79 150.58 14.1455C151.013 14.501 151.229 15.0137 151.229 15.6836C151.229 16.5404 150.876 17.2012 150.169 17.666C149.463 18.1309 148.442 18.3633 147.107 18.3633C146.077 18.3633 145.291 18.181 144.749 17.8164C144.206 17.4518 143.935 16.9323 143.935 16.2578C143.935 15.793 144.081 15.401 144.373 15.082C144.669 14.7676 145.081 14.5488 145.61 14.4258C145.396 14.3346 145.218 14.1888 145.077 13.9883C144.94 13.7832 144.872 13.569 144.872 13.3457C144.872 13.0632 144.951 12.8239 145.111 12.6279C145.27 12.432 145.507 12.2383 145.822 12.0469C145.43 11.8783 145.111 11.6048 144.865 11.2266C144.623 10.8438 144.502 10.3971 144.502 9.88672C144.502 9.06641 144.76 8.43066 145.275 7.97949C145.794 7.52832 146.533 7.30273 147.49 7.30273C147.704 7.30273 147.927 7.31868 148.16 7.35059C148.397 7.37793 148.574 7.40755 148.693 7.43945H151.311ZM145.371 16.1758C145.371 16.5221 145.526 16.7887 145.835 16.9756C146.15 17.1624 146.59 17.2559 147.155 17.2559C148.03 17.2559 148.681 17.1305 149.11 16.8799C149.538 16.6292 149.752 16.2965 149.752 15.8818C149.752 15.5537 149.634 15.319 149.397 15.1777C149.165 15.041 148.729 14.9727 148.091 14.9727H146.875C146.414 14.9727 146.047 15.0798 145.774 15.2939C145.505 15.5127 145.371 15.8066 145.371 16.1758ZM146.061 9.88672C146.061 10.3607 146.182 10.7253 146.423 10.9805C146.669 11.2357 147.02 11.3633 147.476 11.3633C148.406 11.3633 148.871 10.8665 148.871 9.87305C148.871 9.38086 148.754 9.0026 148.522 8.73828C148.294 8.4694 147.945 8.33496 147.476 8.33496C147.011 8.33496 146.658 8.46712 146.417 8.73145C146.18 8.99577 146.061 9.38086 146.061 9.88672ZM158.051 15L157.826 14.0088H157.744C157.52 14.3597 157.201 14.6354 156.787 14.8359C156.376 15.0365 155.907 15.1367 155.378 15.1367C154.462 15.1367 153.779 14.9089 153.328 14.4531C152.876 13.9974 152.651 13.307 152.651 12.3818V7.43945H154.271V12.1016C154.271 12.6803 154.389 13.1156 154.626 13.4072C154.863 13.6943 155.235 13.8379 155.741 13.8379C156.415 13.8379 156.91 13.6374 157.224 13.2363C157.543 12.8307 157.703 12.154 157.703 11.2061V7.43945H159.316V15H158.051ZM166.685 12.8467C166.685 13.585 166.416 14.1523 165.878 14.5488C165.341 14.9408 164.57 15.1367 163.568 15.1367C162.561 15.1367 161.752 14.984 161.141 14.6787V13.291C162.03 13.7012 162.857 13.9062 163.623 13.9062C164.611 13.9062 165.106 13.6077 165.106 13.0107C165.106 12.8193 165.051 12.6598 164.942 12.5322C164.833 12.4046 164.653 12.2725 164.402 12.1357C164.151 11.999 163.803 11.8441 163.356 11.6709C162.486 11.3337 161.895 10.9964 161.585 10.6592C161.28 10.3219 161.127 9.88444 161.127 9.34668C161.127 8.69954 161.387 8.19824 161.907 7.84277C162.431 7.48275 163.142 7.30273 164.04 7.30273C164.928 7.30273 165.769 7.48275 166.562 7.84277L166.042 9.05273C165.227 8.71549 164.541 8.54688 163.985 8.54688C163.137 8.54688 162.713 8.78841 162.713 9.27148C162.713 9.50846 162.823 9.70898 163.042 9.87305C163.265 10.0371 163.748 10.2627 164.491 10.5498C165.115 10.7913 165.569 11.0124 165.851 11.2129C166.134 11.4134 166.343 11.6458 166.48 11.9102C166.617 12.1699 166.685 12.4821 166.685 12.8467ZM171.245 13.8379C171.637 13.8379 172.028 13.7764 172.42 13.6533V14.8633C172.243 14.9408 172.013 15.0046 171.73 15.0547C171.452 15.1094 171.163 15.1367 170.862 15.1367C169.34 15.1367 168.579 14.3346 168.579 12.7305V8.65625H167.546V7.94531L168.654 7.35742L169.201 5.75781H170.192V7.43945H172.345V8.65625H170.192V12.7031C170.192 13.0905 170.288 13.3776 170.479 13.5645C170.675 13.7467 170.93 13.8379 171.245 13.8379ZM183.816 15H177.042V13.7832L179.619 11.1924C180.38 10.4131 180.883 9.86165 181.129 9.53809C181.38 9.20996 181.562 8.90234 181.676 8.61523C181.79 8.32812 181.847 8.02051 181.847 7.69238C181.847 7.24121 181.71 6.88574 181.437 6.62598C181.168 6.36621 180.794 6.23633 180.316 6.23633C179.933 6.23633 179.562 6.30697 179.202 6.44824C178.846 6.58952 178.434 6.84473 177.964 7.21387L177.096 6.1543C177.652 5.6849 178.192 5.35221 178.716 5.15625C179.24 4.96029 179.799 4.8623 180.391 4.8623C181.321 4.8623 182.066 5.10612 182.626 5.59375C183.187 6.07682 183.467 6.72852 183.467 7.54883C183.467 8 183.385 8.42839 183.221 8.83398C183.062 9.23958 182.813 9.65885 182.476 10.0918C182.143 10.5202 181.587 11.1012 180.808 11.835L179.072 13.5166V13.585H183.816V15ZM188.43 8.75879C189.437 8.75879 190.235 9.02539 190.823 9.55859C191.411 10.0918 191.705 10.8187 191.705 11.7393C191.705 12.8057 191.37 13.6396 190.7 14.2412C190.034 14.8382 189.086 15.1367 187.856 15.1367C186.739 15.1367 185.862 14.9567 185.224 14.5967V13.1406C185.593 13.3503 186.017 13.512 186.496 13.626C186.974 13.7399 187.418 13.7969 187.829 13.7969C188.553 13.7969 189.105 13.6351 189.483 13.3115C189.861 12.988 190.05 12.514 190.05 11.8896C190.05 10.6956 189.289 10.0986 187.767 10.0986C187.553 10.0986 187.289 10.1214 186.974 10.167C186.66 10.208 186.384 10.2559 186.147 10.3105L185.429 9.88672L185.812 5.00586H191.007V6.43457H187.227L187.001 8.90918C187.161 8.88184 187.355 8.84993 187.583 8.81348C187.815 8.77702 188.097 8.75879 188.43 8.75879ZM195.239 13.5303C195.02 14.3779 194.619 15.4694 194.036 16.8047H192.853C193.167 15.5742 193.402 14.4303 193.557 13.373H195.136L195.239 13.5303ZM207.195 15H200.42V13.7832L202.998 11.1924C203.759 10.4131 204.262 9.86165 204.508 9.53809C204.759 9.20996 204.941 8.90234 205.055 8.61523C205.169 8.32812 205.226 8.02051 205.226 7.69238C205.226 7.24121 205.089 6.88574 204.816 6.62598C204.547 6.36621 204.173 6.23633 203.695 6.23633C203.312 6.23633 202.941 6.30697 202.581 6.44824C202.225 6.58952 201.813 6.84473 201.343 7.21387L200.475 6.1543C201.031 5.6849 201.571 5.35221 202.095 5.15625C202.619 4.96029 203.178 4.8623 203.77 4.8623C204.7 4.8623 205.445 5.10612 206.005 5.59375C206.566 6.07682 206.846 6.72852 206.846 7.54883C206.846 8 206.764 8.42839 206.6 8.83398C206.441 9.23958 206.192 9.65885 205.855 10.0918C205.522 10.5202 204.966 11.1012 204.187 11.835L202.451 13.5166V13.585H207.195V15ZM215.193 10.0029C215.193 11.7393 214.913 13.029 214.352 13.8721C213.796 14.7152 212.944 15.1367 211.795 15.1367C210.683 15.1367 209.84 14.7015 209.266 13.8311C208.692 12.9606 208.405 11.6846 208.405 10.0029C208.405 8.23926 208.683 6.94043 209.239 6.10645C209.799 5.2679 210.652 4.84863 211.795 4.84863C212.912 4.84863 213.757 5.28613 214.332 6.16113C214.906 7.03613 215.193 8.31673 215.193 10.0029ZM210.032 10.0029C210.032 11.3656 210.171 12.3385 210.449 12.9219C210.731 13.5052 211.18 13.7969 211.795 13.7969C212.411 13.7969 212.86 13.5007 213.142 12.9082C213.429 12.3158 213.573 11.3473 213.573 10.0029C213.573 8.66309 213.429 7.69466 213.142 7.09766C212.86 6.49609 212.411 6.19531 211.795 6.19531C211.18 6.19531 210.731 6.48926 210.449 7.07715C210.171 7.66504 210.032 8.6403 210.032 10.0029ZM223.191 15H216.417V13.7832L218.994 11.1924C219.755 10.4131 220.258 9.86165 220.504 9.53809C220.755 9.20996 220.937 8.90234 221.051 8.61523C221.165 8.32812 221.222 8.02051 221.222 7.69238C221.222 7.24121 221.085 6.88574 220.812 6.62598C220.543 6.36621 220.169 6.23633 219.691 6.23633C219.308 6.23633 218.937 6.30697 218.577 6.44824C218.221 6.58952 217.809 6.84473 217.339 7.21387L216.471 6.1543C217.027 5.6849 217.567 5.35221 218.091 5.15625C218.615 4.96029 219.174 4.8623 219.766 4.8623C220.696 4.8623 221.441 5.10612 222.001 5.59375C222.562 6.07682 222.842 6.72852 222.842 7.54883C222.842 8 222.76 8.42839 222.596 8.83398C222.437 9.23958 222.188 9.65885 221.851 10.0918C221.518 10.5202 220.962 11.1012 220.183 11.835L218.447 13.5166V13.585H223.191V15ZM231.189 15H224.415V13.7832L226.992 11.1924C227.753 10.4131 228.256 9.86165 228.502 9.53809C228.753 9.20996 228.935 8.90234 229.049 8.61523C229.163 8.32812 229.22 8.02051 229.22 7.69238C229.22 7.24121 229.083 6.88574 228.81 6.62598C228.541 6.36621 228.167 6.23633 227.689 6.23633C227.306 6.23633 226.935 6.30697 226.575 6.44824C226.219 6.58952 225.807 6.84473 225.337 7.21387L224.469 6.1543C225.025 5.6849 225.565 5.35221 226.089 5.15625C226.613 4.96029 227.172 4.8623 227.764 4.8623C228.694 4.8623 229.439 5.10612 230 5.59375C230.56 6.07682 230.84 6.72852 230.84 7.54883C230.84 8 230.758 8.42839 230.594 8.83398C230.435 9.23958 230.186 9.65885 229.849 10.0918C229.516 10.5202 228.96 11.1012 228.181 11.835L226.445 13.5166V13.585H231.189V15ZM235.673 11.165C235.673 12.3636 235.496 13.4801 235.14 14.5146C234.789 15.5492 234.281 16.4492 233.616 17.2148H232.228C232.857 16.3626 233.338 15.417 233.67 14.3779C234.008 13.3389 234.176 12.2633 234.176 11.1514C234.176 10.0348 234.008 8.94792 233.67 7.89062C233.333 6.82878 232.848 5.86719 232.214 5.00586H233.616C234.286 5.80339 234.796 6.73079 235.147 7.78809C235.498 8.84082 235.673 9.96647 235.673 11.165Z" fill="white"/>
</g>
<defs>
<clipPath id="clip0_10_10">
<rect width="251" height="20" fill="white"/>
</clipPath>
</defs>
</svg>
