<svg xmlns="http://www.w3.org/2000/svg" width="72" height="72" viewBox="0 0 72 72" fill="none"><path d="M15.373 51.1807C21.1019 51.1807 25.7461 46.8179 25.7461 41.4361V40.9489C25.7461 40.2667 25.7461 39.9256 25.6048 39.6651C25.4805 39.4359 25.2821 39.2495 25.0381 39.1328C24.7608 39 24.3977 39 23.6715 39H7.07461C6.34843 39 5.98534 39 5.70797 39.1328C5.464 39.2495 5.26564 39.4359 5.14132 39.6651C5 39.9256 5 40.2667 5 40.9489V41.4361C5 46.8179 9.64417 51.1807 15.373 51.1807Z" fill="#D9E8FE"></path><path d="M55 55C60.5228 55 65 50.7019 65 45.4V44.92C65 44.2479 65 43.9119 64.8638 43.6552C64.7439 43.4294 64.5527 43.2458 64.3175 43.1308C64.0501 43 63.7001 43 63 43H47C46.2999 43 45.9499 43 45.6825 43.1308C45.4473 43.2458 45.2561 43.4294 45.1362 43.6552C45 43.9119 45 44.2479 45 44.92V45.4C45 50.7019 49.4772 55 55 55Z" fill="#0046CC"></path><path d="M15.1107 23.3489L5.99773 37.4089C5.46778 38.2266 5.20281 38.6354 4.95802 39.3597C4.80797 39.8037 4.6338 40.8843 4.63676 41.3529C4.64157 42.1174 4.69155 42.3088 4.79149 42.6915C6.01466 47.3749 10.1712 50.8226 15.1107 50.8226C20.0502 50.8226 24.2068 47.3749 25.43 42.6915C25.5299 42.3088 25.5799 42.1174 25.5847 41.3529C25.5876 40.8843 25.4135 39.8037 25.2634 39.3597C25.0186 38.6354 24.7537 38.2266 24.2237 37.4089L15.1107 23.3489ZM15.1107 23.3489V13.6314M54.7949 27.2156L45.6819 41.2756C45.152 42.0932 44.887 42.5021 44.6422 43.2264C44.4922 43.6703 44.318 44.7509 44.321 45.2196C44.3258 45.9841 44.3758 46.1755 44.4757 46.5581C45.6989 51.2415 49.8555 54.6892 54.7949 54.6892C59.7344 54.6892 63.891 51.2415 65.1142 46.5581C65.2141 46.1755 65.2641 45.9841 65.2689 45.2196C65.2718 44.7509 65.0977 43.6703 64.9476 43.2264C64.7028 42.5021 64.4379 42.0932 63.9079 41.2756L54.7949 27.2156ZM54.7949 27.2156V13.6313M5.95283 38.6121H24.2686M45.637 42.4787H63.9528M34.9528 63.9998V19.0063M10.5318 63.9998L59.3739 63.9998M10.5318 13.6314L15.1107 13.6314M59.3739 13.6313L54.7949 13.6313M15.1107 13.6314L27.3212 13.6314L42.5844 13.6313L54.7949 13.6313" stroke="#0046CC" stroke-width="2" stroke-linecap="round" stroke-linejoin="round"></path><circle cx="34.8755" cy="13.4995" r="4.5" fill="#F9FAFC" stroke="#0046CC" stroke-width="2"></circle></svg>