<svg xmlns="http://www.w3.org/2000/svg" width="72" height="72" viewBox="0 0 72 72" fill="none"><path d="M14.8711 44.6989L27.0735 42.1535C28.3861 41.8365 31.7776 41.6136 34.8428 43.2583L44.0946 48.3047C44.8378 48.714 45.9161 49.6566 46.0162 50.8915M30.6842 51.2952L36.7586 53.211C42.5526 55.4164 44.9668 53.7873 45.4496 52.697C45.9109 52.0513 46.0609 51.4423 46.0162 50.8915M46.0162 50.8915L59.563 48.3047C60.9308 48.1086 63.7623 48.2145 64.1456 50.2067C64.497 51.2609 64.3373 53.7334 60.8873 55.19L45.6977 61.8505C44.3339 62.4066 39.9413 62.918 33.2817 60.5141C31.1513 59.6011 24.4867 57.8002 14.8711 57.9001" stroke="#0046CC" stroke-width="2" stroke-linecap="round" stroke-linejoin="round"></path><rect x="5.61914" y="39.7251" width="9.27658" height="22.2638" rx="2" fill="#E6F0FF" stroke="#0046CC" stroke-width="2"></rect><ellipse cx="10.2574" cy="45.4244" rx="1.85532" ry="1.85532" fill="white" stroke="#0046CC"></ellipse><path d="M49.2342 36.5419C55.6096 36.5419 60.7779 31.3736 60.7779 24.9982C60.7779 18.6228 55.6096 13.4545 49.2342 13.4545C42.8588 13.4545 37.6905 18.6228 37.6905 24.9982C37.6905 31.3736 42.8588 36.5419 49.2342 36.5419Z" fill="#E6F0FF"></path><path d="M39.4366 31.1059C37.5486 32.4518 35.2382 33.2436 32.7429 33.2436C26.3675 33.2436 21.1992 28.0753 21.1992 21.6998C21.1992 15.3244 26.3675 10.1561 32.7429 10.1561C36.8755 10.1561 40.5009 12.3277 42.5403 15.592M60.7777 24.998C60.7777 31.3735 55.6094 36.5418 49.234 36.5418C42.8585 36.5418 37.6902 31.3735 37.6902 24.998C37.6902 18.6226 42.8585 13.4543 49.234 13.4543C55.6094 13.4543 60.7777 18.6226 60.7777 24.998Z" stroke="#0046CC" stroke-width="2" stroke-linecap="round" stroke-linejoin="round"></path><path d="M61.5729 59.8992L62.736 58.7581L63.1373 57.2404L64.2437 58.3541L65.8216 58.7608L64.6377 59.8246L64.2571 61.4197L63.1301 60.2286L61.5729 59.8992Z" fill="#E0ECFF" fill-opacity="0.8"></path><path d="M7.36541 13.1413L8.5971 11.9818L9.02532 10.2909L10.2417 11.5411L11.8881 11.9295L10.6564 13.089L10.2281 14.7798L9.01185 13.5296L7.36541 13.1413Z" fill="#0046CC"></path><path d="M61.235 34.8392L62.1654 33.9262L62.4919 32.6774L63.3989 33.5957L64.7298 33.9027L63.7307 34.834L63.4043 36.0827L62.4973 35.1645L61.235 34.8392Z" fill="#E0ECFF" fill-opacity="0.8"></path><path d="M52.2034 20.722H48.5112C47.2877 20.722 46.2959 21.7138 46.2959 22.9373C46.2959 24.1608 47.2877 25.1526 48.5112 25.1526H49.9881C51.2116 25.1526 52.2034 26.1444 52.2034 27.3679C52.2034 28.5914 51.2116 29.5832 49.9881 29.5832H46.2959M49.2496 19.2451V20.722M49.2496 29.5832V31.0601" stroke="#0046CC" stroke-width="2" stroke-linecap="round" stroke-linejoin="round"></path><path d="M34.9152 18.0598H31.223C29.9995 18.0598 29.0077 19.0516 29.0077 20.2751C29.0077 21.4985 29.9995 22.4904 31.223 22.4904H32.6999C33.9234 22.4904 34.9152 23.4822 34.9152 24.7057C34.9152 25.9292 33.9234 26.921 32.6999 26.921H29.0077M31.9614 16.5829V18.0598M31.9614 26.921V28.3979" stroke="#0046CC" stroke-width="2" stroke-linecap="round" stroke-linejoin="round"></path></svg>