<svg xmlns="http://www.w3.org/2000/svg" width="72" height="72" viewBox="0 0 72 72" fill="none"><path d="M60.4985 36.2207L61.2092 35.5492C62.2754 34.5419 62.5762 33.0806 62.0971 31.6837L59.6992 24.7853L62.8063 21.9338C63.2505 21.5142 63.6996 20.9217 63.9735 20.4107L64.7976 18.7914C65.0715 18.2804 64.9998 17.7596 64.6665 17.3178C64.2444 16.96 63.7285 16.8589 63.2028 17.1034L61.6257 17.8367C61.0136 18.0787 60.483 18.4959 60.0388 18.9156L57.0181 21.7695L50.2669 18.984C48.9857 18.4289 47.4209 18.7303 46.3572 19.6511L45.6465 20.3226L53.0202 25.5467L49.2691 29.7632L46.8674 29.0898C46.2675 28.8998 45.5715 29.053 45.1249 29.559L43.8811 30.7342L48.3194 32.7623L50.0924 37.3086L51.3362 36.1334C51.7804 35.7138 51.9728 35.0275 51.9036 34.4204L51.3676 31.9843L55.7901 28.4785L60.4985 36.2207Z" fill="#E6F0FF" stroke="#0046CC" stroke-width="1.5"></path><path d="M23.5942 17.7493C23.7565 17.7175 23.789 17.5269 23.9513 17.4952C24.4383 17.4634 24.9253 17.3681 25.3474 17.7175C25.4123 17.8763 25.5422 17.8763 25.672 17.9081C25.7694 17.9081 25.8668 17.9081 25.9642 17.9081C26.0941 17.9081 26.1915 17.9716 26.1915 18.0987C26.1915 18.2575 26.2889 18.2892 26.4187 18.2892C26.7434 18.2892 27.068 18.2892 27.3602 18.4163C27.4252 18.448 27.4901 18.448 27.5875 18.448C27.8472 18.448 27.9771 18.2257 27.8148 18.0034C27.6849 17.781 27.4901 17.6222 27.1979 17.654C27.1654 17.654 27.1005 17.654 27.068 17.654C26.6785 17.654 26.6785 17.654 26.6135 17.2728C26.5811 17.1458 26.5161 17.0823 26.3863 17.0505C26.2889 17.0505 26.1915 17.0505 26.0941 17.0505C25.9967 17.0505 25.8993 17.0505 25.8343 16.9552C25.8343 16.9235 25.8343 16.9235 25.8668 16.8917C26.0616 16.8282 26.2239 16.7011 26.3863 16.5741C26.5161 16.4788 26.646 16.447 26.7759 16.4153C27.0356 16.4153 27.2953 16.4153 27.555 16.4153C27.7174 16.4153 27.8797 16.4788 27.9771 16.6059C28.042 16.7329 28.107 16.8282 28.2368 16.8917C28.3017 16.9552 28.3667 16.987 28.4641 17.0188C28.7563 17.0823 29.0485 17.0505 29.3407 17.0505C29.5354 17.0505 29.6004 16.8599 29.7302 16.7647C29.8276 16.6694 29.925 16.6059 30.0874 16.6694C30.1523 16.7964 30.1198 16.8917 30.0224 16.987C29.925 17.114 29.7952 17.2093 29.6653 17.3364C29.6004 17.4317 29.503 17.4317 29.3731 17.4317C29.1783 17.4317 28.9511 17.4317 28.7563 17.4317C28.4965 17.4317 28.4316 17.5587 28.4641 17.781C28.4641 17.8128 28.4641 17.8446 28.4965 17.8763C28.529 18.1939 28.529 18.1939 28.8537 18.2575C28.8861 18.2575 28.8861 18.2892 28.9186 18.2892C29.1459 18.4798 29.7627 18.4798 29.9575 18.2575C30.0224 18.1939 30.0874 18.1304 30.1523 18.0669C30.2497 17.8763 30.477 17.9398 30.6393 17.8763C30.6717 17.8446 30.7367 17.8763 30.7691 17.8763C31.1263 17.8763 31.1587 17.8128 31.1587 17.4634C31.1587 17.2411 31.1587 17.2411 30.8665 17.1776C30.8341 17.1776 30.8341 17.1458 30.8016 17.1458C30.7691 17.0505 30.7691 16.987 30.8016 16.8917C31.0613 16.7011 31.3211 16.5423 31.6457 16.7329C31.7107 16.7647 31.808 16.7329 31.9054 16.7647C31.9704 16.7964 32.0678 16.7964 32.1002 16.8599C32.1327 16.9235 32.0353 16.9552 32.0028 17.0188C31.9704 17.0505 31.9704 17.0505 31.9379 17.0823C31.7107 17.2411 31.7107 17.4634 31.7431 17.6858C31.7431 17.8446 31.9379 18.0034 32.1327 18.0034C32.295 18.0034 32.4249 18.0034 32.5872 18.0034C32.7171 18.0034 32.7496 17.9398 32.7496 17.8128C32.7496 17.5587 32.7171 17.3364 32.7496 17.0823C32.7496 17.0505 32.782 17.0188 32.8145 16.987C33.1067 16.8917 33.3664 16.7329 33.6586 16.6694C33.756 16.6376 33.8859 16.6059 33.9833 16.5741C34.1456 16.5423 34.3079 16.5423 34.4702 16.5106C34.73 16.4788 34.9897 16.5106 35.2494 16.6376C35.4767 16.7647 35.7364 16.8917 35.9961 16.9552C36.1585 16.987 36.2883 17.0823 36.4182 17.1776C36.4182 17.2093 36.4182 17.2093 36.4182 17.2411C36.3533 17.3046 36.2559 17.3364 36.3533 17.4317C36.3857 17.4634 36.4182 17.5269 36.4182 17.5905C36.3857 17.9081 36.4831 18.2257 36.3533 18.5116C36.3208 18.6068 36.4182 18.5751 36.4507 18.6068C36.4831 18.6068 36.548 18.6386 36.548 18.7021C36.5156 18.7656 36.4507 18.7656 36.4182 18.7656C36.1585 18.8292 36.0935 18.8927 36.0611 19.1468C36.0611 19.2103 36.0611 19.2738 35.9961 19.3374C35.8013 19.4009 35.639 19.3691 35.4767 19.2738C35.3144 19.1786 35.1196 19.1468 34.9572 19.1468C34.73 19.1468 34.5676 19.0515 34.4053 18.9245C34.3079 18.8609 34.3079 18.8292 34.4053 18.7656C34.73 18.6386 35.0222 18.448 35.3468 18.2892C35.5741 18.1939 35.5741 18.0034 35.3144 17.8446C35.2819 17.7493 35.217 17.6858 35.1196 17.654C35.0222 17.5269 34.8923 17.4952 34.7624 17.5269C34.5352 17.5587 34.2754 17.5587 34.0482 17.654C33.9508 17.6858 33.8534 17.7175 33.756 17.7175C33.5937 17.7175 33.4638 17.7493 33.3664 17.8763C33.1391 17.9716 32.9768 18.1939 32.7496 18.2892C32.6197 18.321 32.5223 18.2892 32.3924 18.3527C32.36 18.3527 32.3275 18.3527 32.295 18.3845C32.1327 18.4163 32.1976 18.5433 32.1976 18.6386C32.1976 18.7339 32.295 18.7974 32.2626 18.8927C32.2626 18.8927 32.2301 18.9245 32.1976 18.9245C32.1327 18.9562 32.0353 18.9245 31.9704 18.988C31.9379 19.0197 31.9379 19.0515 31.9054 19.0833C31.808 19.2421 31.7107 19.2421 31.5483 19.115C31.4834 19.0197 31.5483 18.8292 31.386 18.7974C31.1912 18.7656 30.9964 18.7656 30.8016 18.8292C30.7042 18.8609 30.5743 18.9562 30.477 18.9562C30.0549 19.1786 29.6328 19.4009 29.2433 19.655C29.1783 19.6867 29.1459 19.7185 29.0809 19.7503C28.8537 19.782 28.7238 19.9408 28.5615 20.0361C28.4316 20.0996 28.4965 20.2584 28.529 20.3855C28.5615 20.449 28.5939 20.4808 28.5939 20.5443C28.5939 20.8302 28.7238 21.0207 29.016 21.1478C29.2433 21.2431 29.4705 21.4019 29.7627 21.4019C29.8276 21.4019 29.99 21.3383 29.99 21.5289C29.8601 21.5924 29.7302 21.5607 29.6328 21.5607C30.1198 21.656 30.1523 21.5607 30.1523 22.1959C30.1523 22.2594 30.1523 22.3547 30.1523 22.4182C30.1523 22.1959 30.1523 21.9418 30.1523 21.7195C30.1523 21.6242 30.1198 21.5289 30.2172 21.4972C30.3146 21.5607 30.2822 21.656 30.3146 21.7512C30.3146 22.0053 30.3146 22.2594 30.3146 22.5135C30.4445 22.7041 30.8016 22.7041 30.899 22.4818C30.9964 22.2912 31.1587 22.1324 31.1912 21.8783C31.4185 21.6242 31.7107 21.4654 32.0678 21.4336C32.2301 21.4336 32.3275 21.3383 32.4574 21.2431C32.5548 21.1795 32.5548 21.0843 32.5548 20.989C32.5548 20.6396 32.5548 20.2902 32.5548 19.9408C32.5548 19.9091 32.5548 19.9091 32.5872 19.8773C32.782 19.5915 33.0742 19.4326 33.3339 19.4644C33.5287 19.6867 33.8209 19.655 34.0807 19.655C34.1131 19.655 34.178 19.655 34.2105 19.6867C34.4053 19.8138 34.4702 19.9726 34.4378 20.1949C34.4378 20.322 34.4378 20.4808 34.4378 20.6078C34.4378 20.7031 34.4702 20.7984 34.5676 20.7984C34.8274 20.7666 35.0871 20.7349 35.3144 20.5443C35.3144 20.5125 35.3468 20.5125 35.3793 20.5125C35.4767 20.4808 35.5416 20.4808 35.639 20.449C35.8663 20.3855 35.9312 20.449 35.9637 20.6713C35.9961 20.8619 35.9961 21.0525 36.0611 21.2431C36.0935 21.3701 36.1585 21.4654 36.2883 21.5289C36.3208 21.656 36.5156 21.6242 36.5156 21.7512C36.4507 21.783 36.3857 21.8148 36.4507 21.9418C36.548 22.1324 36.5481 22.3547 36.3208 22.4818C36.3857 22.5453 36.4831 22.5135 36.5156 22.5453C36.5156 22.5771 36.5156 22.5771 36.5156 22.6088C36.3533 22.6723 36.1909 22.7041 36.0286 22.7041C35.9961 22.7041 35.9637 22.6723 35.9312 22.6723C35.8987 22.6406 35.8338 22.6088 35.8013 22.5771C35.5741 22.45 35.5416 22.4818 35.4767 22.7359C35.4442 22.7994 35.4117 22.8629 35.3468 22.8629C35.1196 22.8947 34.9248 22.9264 34.6975 22.99C34.6001 23.0217 34.5676 22.9582 34.5027 22.8629C34.2105 22.5135 33.8534 22.4182 33.5612 22.6088C33.3989 22.7359 33.4313 22.8311 33.4313 22.99C33.3989 23.1805 33.4638 23.2758 33.6911 23.2758C33.8859 23.2758 33.9183 23.3711 33.8534 23.5617C33.7885 23.6252 33.7235 23.5934 33.6911 23.5299C33.4638 23.3711 33.269 23.4029 33.0742 23.5934C32.9444 23.7205 32.782 23.8793 32.6197 24.0063C32.5223 24.0698 32.4574 24.1334 32.3924 24.2287C32.295 24.4192 32.1327 24.5463 31.9379 24.6416C31.6133 24.8321 31.2237 24.9592 30.9315 25.2133C30.6717 25.4356 30.4445 25.6897 30.1848 25.912C29.99 26.1026 29.7952 26.2614 29.6653 26.4837C29.6328 26.579 29.5679 26.6743 29.5679 26.7696C29.5354 26.9602 29.503 27.119 29.3407 27.2143C29.3082 27.2143 29.3082 27.246 29.2757 27.246C29.1783 27.246 29.1134 27.3095 29.1134 27.4048C29.1134 27.4366 29.0809 27.4366 29.0485 27.4684C28.7887 27.5954 28.4965 27.7542 28.3017 27.9448C28.2368 28.0083 28.1719 28.0401 28.107 28.1036C28.042 28.1671 27.9446 28.2306 27.8797 28.2942L27.8472 28.3259C27.7498 28.4212 27.6524 28.5165 27.6849 28.6753C27.6849 28.9611 27.6849 29.2152 27.6849 29.5011C27.6849 29.6917 27.62 29.7552 27.3927 29.6917C27.1979 29.6599 27.1005 29.5329 26.9382 29.4376C26.8408 29.3741 26.8408 29.247 26.8408 29.1517C26.8408 28.6435 26.8733 28.6753 26.3213 28.6753C25.672 28.6753 25.0552 28.6753 24.4059 28.6753C24.2435 28.6753 24.0812 28.7071 23.9513 28.8341C23.9189 28.8341 23.9189 28.8659 23.8864 28.8659C23.5942 28.9294 23.3994 29.0882 23.1397 29.247C23.1072 29.247 23.1072 29.2788 23.0748 29.2788C22.9774 29.2788 22.88 29.3423 22.8475 29.4376C22.8475 29.4693 22.815 29.4693 22.815 29.5011C22.7176 29.5646 22.6852 29.6599 22.6527 29.7552C22.6202 29.787 22.6202 29.8187 22.5553 29.8505C22.3605 29.9775 22.2631 30.1681 22.1982 30.3904C22.1657 30.5175 22.1332 30.6445 22.0683 30.7716C21.9385 30.9304 22.0034 31.4703 22.1332 31.6291C22.1657 31.6609 22.1982 31.7244 22.1982 31.7879C22.1982 31.8197 22.1982 31.8197 22.1982 31.8515C22.1982 32.0103 22.2956 32.1373 22.393 32.2326C22.4254 32.3279 22.5228 32.3596 22.6202 32.3596C22.7176 32.3596 22.8475 32.3596 22.815 32.4549C22.815 32.582 22.6852 32.5502 22.5878 32.5502C22.4904 32.5502 22.393 32.5502 22.2956 32.582C22.2631 32.6137 22.2306 32.6455 22.2306 32.6773C22.2306 32.7408 22.2306 32.8043 22.1657 32.8678C22.1332 32.8996 22.1008 32.8996 22.0683 32.8678C21.9385 32.709 21.7761 32.6773 21.5813 32.6773C21.3541 32.6773 21.1268 32.709 20.9969 32.5185C20.9645 32.4549 20.8671 32.4867 20.8022 32.4549C20.6074 32.4232 20.4775 32.3597 20.4126 32.1691C20.3801 32.042 20.2502 32.0103 20.2178 31.8832C20.1204 31.7879 20.023 31.6927 19.9905 31.5656C19.958 31.5021 19.8931 31.4386 19.8606 31.4068C19.8282 31.375 19.8282 31.3433 19.8606 31.3115C20.023 31.2798 19.9905 31.1209 20.0879 31.0257C20.2178 30.9304 20.2178 30.8033 20.0879 30.708L20.0554 30.6763C20.023 30.6445 20.023 30.6128 19.9905 30.581C19.958 30.5175 19.9256 30.4857 19.8931 30.4539L19.8606 30.4222C19.8282 30.2951 19.7632 30.2316 19.6334 30.1681C19.6009 30.1363 19.5685 30.1046 19.5685 30.0728C19.5685 30.041 19.5685 30.0093 19.5685 29.9775C19.5685 29.8822 19.4711 29.8822 19.4386 29.8505C19.4061 29.8187 19.4061 29.787 19.4061 29.787C19.4061 29.6917 19.3412 29.6599 19.2438 29.6281C19.1464 29.5011 19.0815 29.3741 19.0165 29.247C18.9841 29.1517 19.0165 29.0564 18.9841 28.9612C18.9516 28.8023 18.9516 28.6435 18.8542 28.4847C18.8217 28.3894 18.8217 28.2942 18.7893 28.2306C18.7568 27.913 18.6919 27.8813 18.4322 27.8495C18.2049 27.8495 18.14 27.913 18.14 28.1353C18.14 28.3894 18.1724 28.6753 18.2374 28.8976C18.2698 28.9929 18.3023 29.0564 18.3023 29.1517C18.3023 29.1835 18.3023 29.1835 18.3348 29.2152C18.3348 29.3105 18.3997 29.4058 18.4971 29.4693C18.5295 29.5011 18.5295 29.5329 18.562 29.5646C18.7243 29.8187 18.8542 30.0728 19.049 30.2951C19.1464 30.4222 19.1139 30.5492 18.9841 30.6445C18.8217 30.7716 18.4646 30.6763 18.3348 30.5175C18.2049 30.3269 18.14 30.1363 17.9776 29.9775C17.9127 29.7234 17.7179 29.5329 17.653 29.2788C17.6205 29.0882 17.5556 28.9294 17.588 28.7388C17.588 28.453 17.588 28.1671 17.6205 27.8495C17.653 27.6907 17.4582 27.5001 17.2634 27.4366C17.1985 27.4048 17.1335 27.4048 17.0686 27.3731C17.0037 27.3095 16.9387 27.2143 16.8413 27.1825C16.8089 27.1825 16.8089 27.1507 16.8089 27.119C16.7764 26.8014 16.8089 26.4837 16.7764 26.1979C16.7764 26.0391 16.8413 25.8803 16.9063 25.7532C17.0037 25.4991 17.166 25.2768 17.2309 25.0227C17.4257 24.7368 17.5231 24.4192 17.7504 24.1651C17.8153 24.1016 17.8153 24.0063 17.8478 23.911C18.0426 23.8158 18.1075 23.5934 18.2049 23.4029C18.3023 23.2123 18.4322 23.0535 18.4971 22.8629C18.5945 22.7994 18.5945 22.6723 18.6919 22.6088C18.8542 22.4818 18.9516 22.323 19.0165 22.1641C19.1139 21.9736 19.2438 21.8148 19.3737 21.656C19.4711 21.5289 19.5685 21.4336 19.6334 21.3066C19.6659 21.2748 19.6983 21.2113 19.7308 21.1795C19.7632 21.1478 19.8282 21.116 19.8606 21.0525V21.0207C19.958 20.989 20.023 20.9254 20.0879 20.8302V20.7984L20.1204 20.7666C20.1853 20.7349 20.2178 20.7031 20.2502 20.6396L20.2827 20.6078C20.3801 20.5443 20.445 20.4808 20.51 20.3855C20.8671 20.0044 21.2567 19.6232 21.6138 19.2738C21.8411 19.1786 21.9385 18.9562 22.1332 18.8292C22.3605 18.6386 22.5878 18.448 22.7826 18.2257C23.0098 18.0987 23.3669 18.0034 23.5942 17.7493Z" fill="#E6F0FF" stroke="#C8DEFF" stroke-width="0.5"></path><path d="M47.3513 54.335C47.3258 54.3539 47.3003 54.3729 47.2748 54.3918C47.1409 54.5309 46.9255 54.4541 46.7726 54.5678C46.6707 54.6436 46.5498 54.6939 46.4479 54.7697C46.346 54.8455 46.244 54.9213 46.1109 54.9018C46.0665 54.8953 45.9966 54.9078 45.9711 54.9267C45.6908 55.1351 45.348 55.1531 45.0299 55.3106C44.7817 55.4557 44.4644 55.4547 44.235 55.6252C44.083 55.5803 43.9556 55.675 43.8347 55.7254C43.8092 55.7443 43.7583 55.7822 43.7328 55.8012C43.5363 55.7498 43.39 55.8191 43.2182 55.9073C43.104 55.9133 42.9453 55.9128 42.8434 55.9886C42.7735 56.0011 42.7225 56.0389 42.6461 56.0958C42.5195 56.032 42.3987 56.0823 42.2967 56.1581C42.2713 56.177 42.2014 56.1895 42.1759 56.2084C42.0304 56.1192 41.9219 56.2393 41.8011 56.2897L41.7756 56.3086C41.6679 56.2702 41.5725 56.3017 41.4772 56.3331C41.09 56.3445 40.7341 56.4512 40.3215 56.4816C39.9088 56.512 39.4962 56.5424 39.0769 56.6171C38.9372 56.6421 38.8106 56.5782 38.6709 56.6032C38.2073 56.6715 37.77 56.5622 37.3063 56.6305C37.2365 56.643 37.1987 56.5921 37.1354 56.5602C36.9833 56.5153 36.9143 56.3693 36.8452 56.2232C36.7951 56.1025 36.897 56.0267 36.9735 55.9699C37.2028 55.7994 37.3878 55.6224 37.636 55.4773C37.8843 55.3322 37.987 55.0979 38.052 54.8127C38.0849 54.5908 38.1367 54.3944 38.2328 54.2044C38.3035 54.0334 38.3866 53.9322 38.5395 53.8185C38.7943 53.6291 39.0302 53.4142 39.3039 53.2502C39.5777 53.0862 39.6804 52.8518 39.701 52.5602C39.7544 52.0466 40.0668 51.7749 40.5814 51.6687C40.9307 51.6064 41.2546 51.5631 41.604 51.5008C41.807 51.5077 42.0166 51.4704 42.075 51.2295C42.2024 51.1348 42.2665 51.0082 42.2674 50.8496C42.3315 50.723 42.3512 50.5899 42.4153 50.4632C42.4729 50.381 42.5304 50.2987 42.5247 50.1845L42.5312 50.1401C42.6143 50.0389 42.6784 49.9123 42.6792 49.7537C42.6858 49.7094 42.7113 49.6904 42.7179 49.6461C42.8198 49.5703 42.8584 49.4626 42.8527 49.3484C42.8782 49.3295 42.8593 49.304 42.8847 49.2851C43.0121 49.1904 42.9497 48.9999 43.096 48.9306C43.1215 48.9117 43.1659 48.9181 43.1914 48.8992C43.2547 48.9311 43.3311 48.8743 43.3821 48.8364C43.5604 48.7038 43.7388 48.5711 43.9616 48.445C44.1079 48.3757 44.1909 48.2745 44.2172 48.097C44.2493 48.0337 44.3258 47.9769 44.3701 47.9833C44.6176 47.9968 44.6883 47.8258 44.7146 47.6483C44.7475 47.4264 44.5962 47.223 44.362 47.1208C44.2987 47.0889 44.2609 47.038 44.1976 47.0061C44.1787 46.9807 44.1787 46.9807 44.1598 46.9552C44.1408 46.9298 44.1663 46.9109 44.1474 46.8854C44.1795 46.8221 44.1672 46.7523 44.1293 46.7015C44.0414 46.5299 44.0233 46.346 44.0751 46.1495C44.0948 46.0164 44.0891 45.9022 44.0644 45.7626C44.0899 45.7437 44.0899 45.7437 44.1154 45.7247C44.1409 45.7058 44.1853 45.7123 44.1664 45.6868C44.0217 45.439 43.8705 45.2356 43.6748 45.0257C43.6559 45.0003 43.6116 44.9938 43.5672 44.9873C43.4595 44.9489 43.3386 44.9992 43.2564 44.9419C43.1743 44.8846 43.0723 44.9603 42.9901 44.903C42.6811 44.5405 42.423 44.1401 42.095 43.7522C42.0194 43.6505 41.9627 43.5742 41.7974 43.6181C41.481 43.4585 41.3306 43.0965 41.4276 42.748C41.4728 42.596 41.4925 42.4628 41.5123 42.3297C41.6282 42.0066 41.6619 41.6262 41.7589 41.2777C41.8107 41.0813 41.8436 40.8594 41.851 40.6565C41.8641 40.5677 41.8584 40.4536 41.9159 40.3713C42.0055 40.2257 42.133 40.131 42.2859 40.0173C42.6106 39.8154 42.9163 39.5881 43.2032 39.3353C43.2797 39.2784 43.3117 39.2151 43.4194 39.2535C43.5205 39.3363 43.6282 39.3747 43.7556 39.28C43.8321 39.2231 43.9019 39.2107 43.9907 39.2236C44.1239 39.2431 44.2513 39.1484 44.3343 39.0472C44.3984 38.9205 44.3483 38.7999 44.2727 38.6981C44.216 38.6219 44.1847 38.5266 44.2234 38.4189C44.4215 38.1532 44.6755 38.1223 44.973 38.2564C45.0174 38.2629 45.0363 38.2883 45.0807 38.2948C45.144 38.3267 45.2139 38.3143 45.2772 38.3462C45.7145 38.4554 46.1386 38.6533 46.557 38.7371C46.7724 38.8139 47.0067 38.9161 47.2475 38.974C47.2722 39.1136 47.3552 39.0124 47.4061 38.9745C47.5779 38.8863 47.7119 38.7472 47.8648 38.6335C47.9668 38.5577 48.0432 38.5009 48.1575 38.4949C48.2717 38.4889 48.1961 38.3872 48.2027 38.3428C48.2348 38.2795 48.298 38.3114 48.317 38.3368C48.3737 38.4131 48.4435 38.4007 48.5134 38.3882C48.6844 38.4585 48.8619 38.4844 49.0008 38.6181C49.0387 38.6689 49.0765 38.7198 49.0699 38.7642C48.968 38.8399 49.0247 38.9162 49.0625 38.9671C49.2704 39.2468 49.4784 39.5265 49.6863 39.8062C49.5729 39.6537 49.4406 39.4757 49.3272 39.3231C49.2893 39.2722 49.1882 39.1895 49.3346 39.1202C49.5812 39.2922 49.7192 39.5844 49.8894 39.8132C49.9461 39.8895 49.9962 40.0102 50.1171 39.9598C50.1615 39.9663 50.2058 39.9728 50.2502 39.9793C50.3259 40.081 50.427 40.1638 50.5412 40.1578C50.5601 40.1832 50.5601 40.1832 50.579 40.2086C50.5338 40.3607 50.6859 40.4056 50.7426 40.4819C50.7993 40.5582 50.8881 40.5711 50.9259 40.622C51.2103 40.8449 51.4372 41.15 51.7281 41.3285C51.8227 41.4557 51.9427 41.5639 51.9862 41.7289C51.9542 41.7922 51.8843 41.8047 51.8966 41.8745C51.9024 41.9887 51.7815 42.039 51.7051 42.0958C51.6286 42.1527 51.5777 42.1906 51.5267 42.2285C51.6286 42.1527 51.7815 42.039 51.909 41.9443C51.9599 41.9064 52.0109 41.8685 52.0742 41.9004C52.1243 42.0211 52.0035 42.0714 51.9525 42.1093C51.7996 42.223 51.6212 42.3556 51.4683 42.4693C51.29 42.6019 51.2768 42.6906 51.3837 42.8876C51.5661 43.1862 51.5834 43.5288 51.7659 43.8274C51.7461 43.9606 51.7519 44.0747 51.8464 44.2019C51.9976 44.4053 51.9582 44.6716 51.9952 44.881C52.0568 45.23 52.2911 45.3322 52.5903 45.1492C52.6667 45.0924 52.7497 44.9912 52.8763 45.055C52.8566 45.1881 52.7169 45.2131 52.6338 45.3143C52.8755 45.2136 52.8944 45.239 53.0457 45.4424C53.1402 45.5696 53.2092 45.7157 53.4123 45.7226C53.4945 45.78 53.4813 45.8687 53.4936 45.9385C53.4796 46.1858 53.4911 46.4142 53.5026 46.6425C53.5018 46.8011 53.5963 46.9282 53.6654 47.0743C53.8922 47.3795 54.1191 47.6846 54.3649 48.0152C54.4216 48.0915 54.4783 48.1678 54.4397 48.2755C54.4577 48.4594 54.3492 48.5796 54.2218 48.6743C54.1454 48.7312 54.0179 48.8259 54.0048 48.9146C53.9464 49.1554 53.7491 49.2626 53.5708 49.3952C53.4113 49.5533 53.2074 49.7049 53.1047 49.9392C53.0792 49.9581 53.0537 49.9771 53.0282 49.996C52.8252 49.989 52.7035 50.1979 52.5572 50.2672C52.729 50.179 52.8441 50.0145 53.0282 49.996C52.983 50.1481 52.8433 50.173 52.7413 50.2488C52.6394 50.3246 52.5186 50.3749 52.4799 50.4826C52.281 50.9069 51.8675 51.0959 51.5296 51.3865C51.5042 51.4055 51.4976 51.4498 51.4721 51.4688C50.6821 52.0561 49.8922 52.6434 49.1022 53.2307C49.0767 53.2496 49.0512 53.2686 49.0069 53.2621C48.9049 53.3379 48.7775 53.4326 48.6756 53.5084C48.4791 53.457 48.4791 53.457 48.4717 53.6599C48.4462 53.6789 48.4207 53.6978 48.3953 53.7168C48.281 53.7228 48.161 53.6146 48.0336 53.7093C47.8042 53.8798 47.5494 54.0692 47.3513 54.335Z" fill="#E6F0FF" stroke="#C8DEFF" stroke-width="0.5"></path><path d="M32.997 43.332C32.997 43.4382 32.997 43.5444 32.997 43.6505C32.9453 43.7301 32.9194 43.8098 32.9194 43.8894C32.9453 44.1548 32.997 44.4202 32.9453 44.659C32.9453 44.7121 32.9453 44.7387 32.997 44.7652C32.9712 44.8714 32.8936 44.951 32.8159 45.0306C32.6607 45.2429 32.5055 45.4552 32.3761 45.6676C32.2209 45.6941 32.0656 45.933 32.0656 46.1453C31.9621 46.3576 31.8069 46.5434 31.6517 46.6761C31.3929 46.7292 31.186 46.8619 30.9531 46.968C30.8496 47.0211 30.7203 47.0211 30.6168 47.0211C30.4615 47.0211 30.3063 47.0476 30.1769 47.1803C30.0993 47.26 30.0993 47.3396 30.1252 47.4192C30.1511 47.5254 30.2028 47.5784 30.3063 47.5784C30.3322 47.5784 30.3839 47.5784 30.4098 47.5784C30.565 47.605 30.6168 47.7377 30.5133 47.8438C30.4874 47.8969 30.4357 47.9235 30.4098 48.0031C30.3063 48.0031 30.2804 48.1092 30.2287 48.1358C30.0476 48.1623 30.0217 48.2685 30.0993 48.4012C30.2287 48.587 30.3322 48.7993 30.6426 48.7462C30.7461 48.7197 30.7979 48.7727 30.772 48.9054C30.7203 49.1178 30.7461 49.3301 30.6168 49.5424C30.5391 49.6751 30.5909 49.8078 30.7203 49.9139C30.9272 50.0732 31.1342 50.2059 31.2636 50.4182C31.3412 50.5244 31.2895 50.6305 31.1601 50.6571C31.1083 50.6571 31.0566 50.6571 31.0049 50.6571C30.9531 50.5774 30.8496 50.604 30.772 50.604C30.6426 50.604 30.4874 50.6305 30.358 50.5509C30.2804 50.5244 30.2028 50.4978 30.1511 50.3917C30.1252 50.3386 30.0734 50.312 29.9958 50.312C29.8665 50.1793 29.7371 50.0466 29.5819 49.9405C29.4008 49.8078 29.2714 49.6485 29.1938 49.4628C29.0903 49.2239 28.935 49.0381 28.8316 48.7993C28.8057 48.6931 28.7798 48.587 28.7022 48.4808C28.6504 48.4277 28.6504 48.3481 28.6504 48.2685C28.6504 47.9235 28.6504 47.5519 28.6763 47.2069C28.7022 46.9149 28.5987 46.7026 28.4176 46.5168C28.1589 46.2514 28.0813 45.933 28.2365 45.5879C28.34 45.3491 28.34 45.0837 28.3141 44.8183C28.3141 44.7121 28.2624 44.6325 28.133 44.6325C28.0036 44.6325 27.9778 44.5529 27.9778 44.4467C27.9778 43.6505 27.9778 42.8543 27.9778 42.0581C27.9778 42.005 27.9778 41.9785 27.9778 41.9254C28.0036 41.66 27.8484 41.5008 27.6414 41.3681C27.4603 41.2619 27.3051 41.1292 27.1498 40.9965C27.0205 40.8904 26.8911 40.8638 26.7618 40.8373C26.6583 40.7046 26.4772 40.7311 26.3478 40.6515C26.3478 40.5719 26.3478 40.5188 26.3478 40.4392C26.3219 40.3861 26.3219 40.3065 26.3219 40.2269C26.3219 40.1207 26.296 40.0146 26.1667 39.988V39.9615C26.1408 39.8819 26.0891 39.8553 26.0373 39.8288C25.908 39.6165 25.701 39.4572 25.5716 39.2184C25.4422 39.006 25.2611 38.7937 25.08 38.6079C25.0024 38.5283 25.0024 38.4222 25.0542 38.3691C25.1835 38.1302 25.1835 37.8914 25.1835 37.626C25.1835 37.5729 25.1835 37.5198 25.2094 37.4933C25.3129 37.6525 25.2353 37.8383 25.2611 37.971C25.287 37.7587 25.2611 37.4933 25.287 37.2279C25.287 37.1748 25.2611 37.1217 25.2094 37.0952C25.3129 36.9359 25.494 36.8563 25.6234 36.7501C25.7268 36.6705 25.8303 36.5909 25.9597 36.5378C26.0632 36.5113 26.0891 36.352 26.0632 36.2724C26.0114 35.9805 26.1926 35.9009 26.1926 35.7947C26.1926 35.662 26.1926 35.5293 26.1926 35.3701C26.1926 35.317 26.1926 35.2904 26.2184 35.2374C26.296 35.0516 26.2443 35.025 26.2702 34.972C26.4254 34.7331 26.6324 34.5473 26.7876 34.3085C26.8135 34.2554 26.8135 34.2023 26.8652 34.1758C26.9429 34.1492 26.9687 34.1227 26.9946 34.0431V34.0165C27.0205 33.99 27.0463 33.99 27.0722 33.99C27.124 33.99 27.2016 33.99 27.2533 33.99C27.2792 33.99 27.3051 33.99 27.3309 34.0165C27.3568 34.0165 27.3568 34.0165 27.3827 34.0431C27.6155 34.1227 27.8484 34.2023 28.0813 34.2288L28.1071 34.2554C28.133 34.3085 28.1589 34.335 28.2106 34.3615C28.2365 34.3881 28.2365 34.4146 28.2365 34.4412C28.2624 34.5473 28.3659 34.6269 28.4435 34.7066C28.5728 34.7596 28.7022 34.7331 28.8316 34.7066C29.0127 34.7066 29.1938 34.7066 29.3749 34.7066C29.5042 34.7066 29.5819 34.6004 29.6854 34.5208C29.7112 34.5208 29.763 34.5208 29.7888 34.5208C29.97 34.6004 30.0734 34.7596 30.2028 34.8923C30.2287 35.025 30.358 35.0781 30.3839 35.2108C30.5133 35.317 30.5391 35.5028 30.6944 35.6089C30.772 35.662 30.8496 35.6885 30.9531 35.6885C31.1601 35.6885 31.3671 35.6885 31.574 35.6885C31.7293 35.6885 31.8328 35.7416 31.8586 35.9009C31.8845 36.0336 31.988 36.1397 32.0398 36.2459C32.1432 36.4317 32.1432 36.644 32.1432 36.8298C32.1174 37.0686 32.1691 37.2544 32.402 37.334C32.609 37.4136 32.8159 37.4933 33.0229 37.5729C33.0488 37.5729 33.1005 37.5729 33.1264 37.5994C33.1264 37.5994 33.1264 37.5994 33.1005 37.626C33.0747 37.626 33.0488 37.626 33.0488 37.5994C33.0229 37.5994 32.997 37.5994 32.9712 37.5994C32.8418 37.6525 32.8159 37.7321 32.8418 37.8648C32.8677 37.9444 32.8418 38.0241 32.8418 38.1037C32.8418 39.6961 32.8418 41.2885 32.8418 42.8809C32.9194 43.0932 32.8936 43.2259 32.997 43.332Z" fill="#E6F0FF" stroke="#C8DEFF" stroke-width="0.5"></path><path d="M45.4572 14.5493C42.6574 13.2784 39.5477 12.5706 36.2726 12.5706C23.9881 12.5706 14.0295 22.5291 14.0295 34.8137C14.0295 47.0982 23.9881 57.0568 36.2726 57.0568C46.2604 57.0568 54.7107 50.4738 57.5213 41.4101" stroke="#0046CC" stroke-width="2"></path><path d="M14.1323 32.7486C10.3868 36.105 8.57032 39.4726 9.5974 41.8753C11.561 46.4688 22.8301 45.9978 34.9059 40.8356C37.7822 39.6061 40.4344 38.2258 42.7801 36.7751" stroke="#0046CC" stroke-width="2" stroke-miterlimit="10" stroke-linecap="round" stroke-linejoin="round"></path><path opacity="0.1" d="M13.9598 33.9512C11.8455 36.2759 11.2589 38.3217 11.9839 40.0177C13.6756 43.9752 23.5746 43.5884 34.1488 39.0682C36.9685 37.8628 39.5159 36.5354 41.7036 35.1618" stroke="#0046CC" stroke-width="2" stroke-miterlimit="10" stroke-linecap="round" stroke-linejoin="round"></path><path d="M61.8411 10.234L62.6923 11.7414L64.1395 12.5705L62.6923 13.3997L61.8411 14.9071L61.0749 13.3997L59.5427 12.5705L61.0749 11.7414L61.8411 10.234Z" fill="#E6F0FF"></path><path d="M9.46913 8.72241L10.3204 10.3052L11.9379 11.2096L10.3204 12.1141L9.46913 13.6969L8.61793 12.1141L7.00052 11.2096L8.61793 10.3052L9.46913 8.72241Z" fill="#0046CC"></path><path d="M59.9686 57.0568L60.6496 58.2627L61.8414 58.9411L60.6496 59.6194L59.9686 60.9007L59.2875 59.6194L58.0959 58.9411L59.2875 58.2627L59.9686 57.0568Z" fill="#E6F0FF"></path></svg>