<svg xmlns="http://www.w3.org/2000/svg" width="57" height="56" viewBox="0 0 57 56" fill="none"><path d="M14.6248 33.7375L23.3624 31.9149C24.3023 31.6879 26.7308 31.5282 28.9256 32.706L35.5504 36.3195C36.0826 36.6126 36.8548 37.2875 36.9264 38.1718M25.9478 38.4609L30.2974 39.8327C34.4463 41.4119 36.175 40.2453 36.5207 39.4646C36.851 39.0022 36.9584 38.5662 36.9264 38.1718M36.9264 38.1718L46.6268 36.3195C47.6062 36.1791 49.6336 36.2549 49.9081 37.6815C50.1597 38.4363 50.0454 40.2067 47.575 41.2498L36.6984 46.019C35.7218 46.4173 32.5765 46.7835 27.8078 45.0621C26.2823 44.4084 21.5101 43.1188 14.6248 43.1904" stroke="white" stroke-width="1.5" stroke-linecap="round" stroke-linejoin="round"></path><rect x="8" y="30.1763" width="6.64256" height="15.9421" rx="2" stroke="white" stroke-width="1.5"></rect><ellipse cx="11.3206" cy="34.2562" rx="1.32851" ry="1.32851" fill="white" stroke="white" stroke-width="1.5"></ellipse><path d="M32.216 24.0012C30.8641 24.965 29.2097 25.5319 27.4229 25.5319C22.8578 25.5319 19.157 21.8311 19.157 17.266C19.157 12.7008 22.8578 9 27.4229 9C30.3821 9 32.9781 10.555 34.4384 12.8924M47.4974 19.6277C47.4974 24.1928 43.7966 27.8936 39.2315 27.8936C34.6663 27.8936 30.9655 24.1928 30.9655 19.6277C30.9655 15.0625 34.6663 11.3617 39.2315 11.3617C43.7966 11.3617 47.4974 15.0625 47.4974 19.6277Z" stroke="white" stroke-width="1.5" stroke-linecap="round" stroke-linejoin="round"></path><path d="M41.3562 16.5683H38.7124C37.8363 16.5683 37.1261 17.2785 37.1261 18.1546C37.1261 19.0306 37.8363 19.7408 38.7124 19.7408H39.7699C40.646 19.7408 41.3562 20.4511 41.3562 21.3271C41.3562 22.2032 40.646 22.9134 39.7699 22.9134H37.1261M39.2411 15.5107V16.5683M39.2411 22.9134V23.9709" stroke="white" stroke-width="1.5" stroke-linecap="round" stroke-linejoin="round"></path><path d="M28.9784 14.6615H26.3346C25.4585 14.6615 24.7483 15.3717 24.7483 16.2478C24.7483 17.1239 25.4585 17.8341 26.3346 17.8341H27.3921C28.2682 17.8341 28.9784 18.5443 28.9784 19.4204C28.9784 20.2965 28.2682 21.0067 27.3921 21.0067H24.7483M26.8633 13.604V14.6615M26.8633 21.0067V22.0642" stroke="white" stroke-width="1.5" stroke-linecap="round" stroke-linejoin="round"></path></svg>