<svg xmlns="http://www.w3.org/2000/svg" width="72" height="72" viewBox="0 0 72 72" fill="none"><path d="M25.3403 45.6709C22.1191 43.255 19.7397 39.8868 18.5391 36.0435C17.3386 32.2001 17.3777 28.0764 18.651 24.2566C19.9243 20.4367 22.3672 17.1143 25.6337 14.7599C28.9001 12.4056 32.8246 11.1387 36.8511 11.1387C40.8776 11.1387 44.802 12.4056 48.0685 14.7599C51.335 17.1143 53.7779 20.4367 55.0512 24.2566C56.3245 28.0764 56.3636 32.2001 55.163 36.0435C53.9625 39.8868 51.583 43.255 48.3618 45.6709C46.8638 47.1538 45.7358 48.9685 45.0693 50.9682C44.4027 52.968 44.2162 59.405 44.5249 61.4902C44.5249 63.5254 43.7164 65.4773 42.2773 66.9164C40.8382 68.3555 38.8863 69.164 36.8511 69.164C34.8159 69.164 32.864 68.3555 31.4249 66.9164C29.9857 65.4773 29.1773 63.5254 29.1773 61.4902C29.486 59.405 29.2995 52.968 28.6329 50.9682C27.9663 48.9685 26.8384 47.1538 25.3403 45.6709Z" fill="white" stroke="#0046CC" stroke-width="2" stroke-linecap="round" stroke-linejoin="round"></path><path d="M25.5026 32.5661V30.5352C25.5026 29.3341 26.4779 28.3514 27.6699 28.3514C29.7506 28.3514 30.5958 26.8664 29.5555 25.0539C28.9486 24.0057 29.3171 22.6517 30.3574 22.0621L32.3297 20.9047C33.24 20.3588 34.4103 20.6863 34.9522 21.6035L35.0822 21.8219C36.1225 23.6344 37.8131 23.6344 38.8534 21.8219L38.9834 21.6035C39.5253 20.6863 40.6956 20.3806 41.6059 20.9047L43.5782 22.0621C44.6185 22.6736 44.987 24.0057 44.3801 25.0539C43.3398 26.8664 44.185 28.3514 46.2657 28.3514C47.4577 28.3514 48.433 29.3341 48.433 30.5352V32.5661C48.433 33.7672 47.4577 34.7499 46.2657 34.7499C44.185 34.7499 43.3398 36.2348 44.3801 38.0474C44.987 39.0956 44.6185 40.4495 43.5782 41.0391L41.6059 42.1966C40.6956 42.7425 39.5253 42.4149 38.9834 41.4977L38.8534 41.2794C37.8131 39.4668 36.1225 39.4668 35.0822 41.2794L34.9522 41.4977C34.4103 42.4149 33.24 42.7207 32.3297 42.1966L30.3574 41.0391C29.3171 40.4277 28.9486 39.0956 29.5555 38.0474C30.5958 36.2348 29.7506 34.7499 27.6699 34.7499C26.4779 34.7717 25.5026 33.789 25.5026 32.5661Z" fill="#D9E8FE" stroke="#0026D0" stroke-width="2" stroke-miterlimit="10" stroke-linecap="round" stroke-linejoin="round"></path><path d="M36.9633 35.1853C39.074 35.1853 40.7851 33.5569 40.7851 31.5482C40.7851 29.5395 39.074 27.9111 36.9633 27.9111C34.8527 27.9111 33.1416 29.5395 33.1416 31.5482C33.1416 33.5569 34.8527 35.1853 36.9633 35.1853Z" fill="white" stroke="#0026D0" stroke-width="2" stroke-miterlimit="10" stroke-linecap="round" stroke-linejoin="round"></path><rect x="24.2661" y="51.7534" width="25.1798" height="12.478" rx="4" fill="#0046CC" stroke="#0046CC" stroke-width="2"></rect><path d="M31.2412 56.3149H42.4795" stroke="white" stroke-width="1.5" stroke-linecap="round"></path><path d="M31.2412 59.6699H42.4795" stroke="white" stroke-width="1.5" stroke-linecap="round"></path><path d="M11.25 27.9167H14.0297M36.2673 3.375V6.10185M58.5049 27.9167H61.2846M18.4772 10.4648L20.423 12.3736M54.0574 10.4648L52.1116 12.3736" stroke="#0046CC" stroke-width="2.5" stroke-linecap="round" stroke-linejoin="round"></path></svg>