<svg width="136" height="137" viewBox="0 0 136 137" fill="none" xmlns="http://www.w3.org/2000/svg">
<g filter="url(#filter0_dd_3646_31956)">
<circle cx="68" cy="64.6973" r="56" fill="white"/>
</g>
<g clip-path="url(#clip0_3646_31956)">
<path d="M65.6391 100.672L64.7879 99.1644L63.3407 98.3354L64.7879 97.5062L65.6391 95.9988L66.4052 97.5062L67.9375 98.3354L66.4052 99.1644L65.6391 100.672Z" fill="#E0ECFF"/>
<path d="M99.9375 57.6973L99.1968 56.407L97.9375 55.6973L99.1968 54.9876L99.9375 53.6973L100.604 54.9876L101.938 55.6973L100.604 56.407L99.9375 57.6973Z" fill="#E0ECFF"/>
<path d="M41.4686 35.6973L42.3199 37.2801L43.9373 38.1845L42.3199 39.089L41.4686 40.6718L40.6174 39.089L39 38.1845L40.6174 37.2801L41.4686 35.6973Z" fill="#0046CC"/>
<ellipse cx="85.4845" cy="75.2648" rx="5.68966" ry="5.5586" fill="white" stroke="#0046CC" stroke-width="2"/>
<path d="M74.4891 90.0676C74.4891 85.2419 78.4012 81.3299 83.2269 81.3299H87.7514C92.5771 81.3299 96.4891 85.2419 96.4891 90.0676C96.4891 90.9724 95.7556 91.706 94.8508 91.706H76.1275C75.2226 91.706 74.4891 90.9724 74.4891 90.0676Z" fill="white" stroke="#0046CC" stroke-width="2"/>
<path fill-rule="evenodd" clip-rule="evenodd" d="M62.6962 91.7062C63.8008 91.7062 64.6962 90.8108 64.6962 89.7062L64.6962 74.3919L69.3101 70.222C69.5139 70.0378 69.3836 69.6994 69.1089 69.6994L62.9093 69.6994C62.8393 69.692 62.7682 69.6882 62.6962 69.6882L39.5107 69.6882C38.4062 69.6882 37.5107 70.5836 37.5107 71.6882L37.5107 89.7062C37.5107 90.8108 38.4062 91.7062 39.5107 91.7062L62.6962 91.7062Z" fill="#E6F0FF"/>
<path d="M64.6962 74.3919L64.0257 73.65L63.6962 73.9477L63.6962 74.3919L64.6962 74.3919ZM69.3101 70.222L69.9806 70.9639L69.9806 70.9639L69.3101 70.222ZM69.1089 69.6994L69.1089 68.6994L69.1089 68.6994L69.1089 69.6994ZM62.9093 69.6994L62.804 70.6938L62.8565 70.6994L62.9093 70.6994L62.9093 69.6994ZM63.6962 89.7062C63.6962 90.2585 63.2485 90.7062 62.6962 90.7062L62.6962 92.7062C64.353 92.7062 65.6962 91.3631 65.6962 89.7062L63.6962 89.7062ZM63.6962 74.3919L63.6962 89.7062L65.6962 89.7062L65.6962 74.3919L63.6962 74.3919ZM65.3667 75.1338L69.9806 70.9639L68.6396 69.4801L64.0257 73.65L65.3667 75.1338ZM69.9806 70.9639C70.8635 70.1659 70.2991 68.6994 69.1089 68.6994L69.1089 70.6994C68.4681 70.6994 68.1642 69.9097 68.6396 69.4801L69.9806 70.9639ZM69.1089 68.6994L62.9093 68.6994L62.9093 70.6994L69.1089 70.6994L69.1089 68.6994ZM62.6962 70.6882C62.7329 70.6882 62.7689 70.6901 62.804 70.6938L63.0147 68.705C62.9097 68.6938 62.8035 68.6882 62.6962 68.6882L62.6962 70.6882ZM39.5107 70.6882L62.6962 70.6882L62.6962 68.6882L39.5107 68.6882L39.5107 70.6882ZM38.5107 71.6882C38.5107 71.1359 38.9584 70.6882 39.5107 70.6882L39.5107 68.6882C37.8539 68.6882 36.5107 70.0313 36.5107 71.6882L38.5107 71.6882ZM38.5107 89.7062L38.5107 71.6882L36.5107 71.6882L36.5107 89.7062L38.5107 89.7062ZM39.5107 90.7062C38.9584 90.7062 38.5107 90.2585 38.5107 89.7062L36.5107 89.7062C36.5107 91.3631 37.8539 92.7062 39.5107 92.7062L39.5107 90.7062ZM62.6962 90.7062L39.5107 90.7062L39.5107 92.7062L62.6962 92.7062L62.6962 90.7062Z" fill="#0046CC"/>
<path d="M42.5839 76.1404H57.5232" stroke="#0046CC" stroke-width="1.5" stroke-linecap="round"/>
<path d="M42.5839 82.2416H52.9471" stroke="#0046CC" stroke-width="1.5" stroke-linecap="round"/>
<ellipse cx="50.5456" cy="43.7613" rx="6.2069" ry="6.06393" fill="#0046CC" stroke="white" stroke-width="2"/>
<path d="M38.5507 59.9099C38.5507 54.6455 42.8183 50.3778 48.0827 50.3778H53.0186C58.283 50.3778 62.5507 54.6455 62.5507 59.9099C62.5507 60.897 61.7505 61.6971 60.7634 61.6971H40.3379C39.3508 61.6971 38.5507 60.897 38.5507 59.9099Z" fill="#0046CC" stroke="white" stroke-width="2"/>
<path fill-rule="evenodd" clip-rule="evenodd" d="M72.2635 39.6791C71.159 39.6791 70.2635 40.5745 70.2635 41.6791L70.2635 56.9935L65.6496 61.1633C65.4459 61.3475 65.5761 61.6859 65.8508 61.6859L72.0504 61.6859C72.1204 61.6933 72.1915 61.6971 72.2635 61.6971L95.449 61.6971C96.5535 61.6971 97.449 60.8017 97.449 59.6971L97.449 41.6791C97.449 40.5745 96.5536 39.6791 95.449 39.6791L72.2635 39.6791Z" fill="#E6F0FF"/>
<path d="M70.2635 56.9935L70.934 57.7354L71.2635 57.4376L71.2635 56.9935L70.2635 56.9935ZM65.6496 61.1633L64.9791 60.4214L64.9791 60.4214L65.6496 61.1633ZM65.8508 61.6859L65.8508 62.6859L65.8508 62.6859L65.8508 61.6859ZM72.0504 61.6859L72.1557 60.6915L72.1032 60.6859L72.0504 60.6859L72.0504 61.6859ZM71.2635 41.6791C71.2635 41.1268 71.7112 40.6791 72.2635 40.6791L72.2635 38.6791C70.6067 38.6791 69.2635 40.0222 69.2635 41.6791L71.2635 41.6791ZM71.2635 56.9935L71.2635 41.6791L69.2635 41.6791L69.2635 56.9935L71.2635 56.9935ZM69.593 56.2516L64.9791 60.4214L66.3201 61.9052L70.934 57.7354L69.593 56.2516ZM64.9791 60.4214C64.0962 61.2194 64.6607 62.6859 65.8508 62.6859L65.8508 60.6859C66.4916 60.6859 66.7956 61.4756 66.3201 61.9052L64.9791 60.4214ZM65.8508 62.6859L72.0504 62.6859L72.0504 60.6859L65.8508 60.6859L65.8508 62.6859ZM72.2635 60.6971C72.2268 60.6971 72.1908 60.6952 72.1557 60.6915L71.945 62.6803C72.05 62.6915 72.1563 62.6971 72.2635 62.6971L72.2635 60.6971ZM95.449 60.6971L72.2635 60.6971L72.2635 62.6971L95.449 62.6971L95.449 60.6971ZM96.449 59.6971C96.449 60.2494 96.0013 60.6971 95.449 60.6971L95.449 62.6971C97.1058 62.6971 98.449 61.354 98.449 59.6971L96.449 59.6971ZM96.449 41.6791L96.449 59.6971L98.449 59.6971L98.449 41.6791L96.449 41.6791ZM95.449 40.6791C96.0013 40.6791 96.449 41.1268 96.449 41.6791L98.449 41.6791C98.449 40.0222 97.1058 38.6791 95.449 38.6791L95.449 40.6791ZM72.2635 40.6791L95.449 40.6791L95.449 38.6791L72.2635 38.6791L72.2635 40.6791Z" fill="#0046CC"/>
<path d="M80.2772 46.978C80.5437 46.2205 81.0697 45.5817 81.7621 45.1748C82.4544 44.7679 83.2685 44.6191 84.06 44.7549C84.8515 44.8907 85.5694 45.3022 86.0866 45.9165C86.6038 46.5309 86.8868 47.3085 86.8856 48.1116C86.8856 50.3786 83.4851 51.5121 83.4851 51.5121V53.9764M83.544 56.9407V57.0495" stroke="#0046CC" stroke-width="1.5" stroke-linecap="round" stroke-linejoin="round"/>
</g>
<defs>
<filter id="filter0_dd_3646_31956" x="0" y="0.697266" width="136" height="136" filterUnits="userSpaceOnUse" color-interpolation-filters="sRGB">
<feFlood flood-opacity="0" result="BackgroundImageFix"/>
<feColorMatrix in="SourceAlpha" type="matrix" values="0 0 0 0 0 0 0 0 0 0 0 0 0 0 0 0 0 0 127 0" result="hardAlpha"/>
<feOffset dy="4"/>
<feGaussianBlur stdDeviation="6"/>
<feComposite in2="hardAlpha" operator="out"/>
<feColorMatrix type="matrix" values="0 0 0 0 0.886275 0 0 0 0 0.909804 0 0 0 0 0.941176 0 0 0 1 0"/>
<feBlend mode="normal" in2="BackgroundImageFix" result="effect1_dropShadow_3646_31956"/>
<feColorMatrix in="SourceAlpha" type="matrix" values="0 0 0 0 0 0 0 0 0 0 0 0 0 0 0 0 0 0 127 0" result="hardAlpha"/>
<feOffset/>
<feGaussianBlur stdDeviation="2"/>
<feComposite in2="hardAlpha" operator="out"/>
<feColorMatrix type="matrix" values="0 0 0 0 0.886275 0 0 0 0 0.909804 0 0 0 0 0.941176 0 0 0 0.75 0"/>
<feBlend mode="normal" in2="effect1_dropShadow_3646_31956" result="effect2_dropShadow_3646_31956"/>
<feBlend mode="normal" in="SourceGraphic" in2="effect2_dropShadow_3646_31956" result="shape"/>
</filter>
<clipPath id="clip0_3646_31956">
<rect width="72" height="72" fill="white" transform="translate(32 28.6973)"/>
</clipPath>
</defs>
</svg>
