<svg xmlns="http://www.w3.org/2000/svg" width="56" height="56" viewBox="0 0 56 56" fill="none"><path d="M49.1225 28.9558L49.7352 28.3769C50.6543 27.5085 50.9137 26.2488 50.5007 25.0445L48.4335 19.0976L51.112 16.6395C51.4949 16.2776 51.8821 15.7669 52.1182 15.3264L52.8287 13.9304C53.0648 13.4899 53.003 13.0409 52.7157 12.6601C52.3517 12.3516 51.907 12.2645 51.4538 12.4752L50.0942 13.1074C49.5666 13.316 49.1092 13.6757 48.7262 14.0375L46.1222 16.4978L40.3021 14.0965C39.1977 13.6179 37.8487 13.8777 36.9317 14.6716L36.319 15.2505L42.6756 19.754L39.442 23.3889L37.3715 22.8084C36.8544 22.6446 36.2544 22.7767 35.8693 23.2129L34.797 24.226L38.6232 25.9744L40.1517 29.8936L41.224 28.8806C41.6069 28.5188 41.7728 27.9272 41.7131 27.4038L41.251 25.3037L45.0635 22.2814L49.1225 28.9558Z" stroke="white" stroke-width="1.5"></path><path d="M17.3053 13.0353C17.4453 13.0079 17.4732 12.8436 17.6132 12.8162C18.033 12.7888 18.4528 12.7067 18.8167 13.0079C18.8726 13.1448 18.9846 13.1448 19.0965 13.1722C19.1805 13.1722 19.2645 13.1722 19.3484 13.1722C19.4604 13.1722 19.5444 13.2269 19.5444 13.3364C19.5444 13.4733 19.6283 13.5007 19.7403 13.5007C20.0201 13.5007 20.3 13.5007 20.5519 13.6103C20.6079 13.6376 20.6639 13.6376 20.7478 13.6376C20.9717 13.6376 21.0837 13.446 20.9437 13.2543C20.8318 13.0626 20.6639 12.9257 20.412 12.9531C20.384 12.9531 20.328 12.9531 20.3 12.9531C19.9642 12.9531 19.9642 12.9531 19.9082 12.6245C19.8802 12.515 19.8242 12.4603 19.7123 12.4329C19.6283 12.4329 19.5444 12.4329 19.4604 12.4329C19.3764 12.4329 19.2925 12.4329 19.2365 12.3507C19.2365 12.3233 19.2365 12.3233 19.2645 12.296C19.4324 12.2412 19.5723 12.1317 19.7123 12.0222C19.8242 11.94 19.9362 11.9126 20.0481 11.8853C20.272 11.8853 20.4959 11.8853 20.7198 11.8853C20.8598 11.8853 20.9997 11.94 21.0837 12.0495C21.1397 12.1591 21.1956 12.2412 21.3076 12.296C21.3636 12.3507 21.4195 12.3781 21.5035 12.4055C21.7554 12.4603 22.0073 12.4329 22.2592 12.4329C22.4271 12.4329 22.4831 12.2686 22.595 12.1864C22.679 12.1043 22.763 12.0495 22.9029 12.1043C22.9589 12.2138 22.9309 12.296 22.8469 12.3781C22.763 12.4876 22.651 12.5698 22.5391 12.6793C22.4831 12.7614 22.3991 12.7614 22.2872 12.7614C22.1192 12.7614 21.9233 12.7614 21.7554 12.7614C21.5315 12.7614 21.4755 12.871 21.5035 13.0626C21.5035 13.09 21.5035 13.1174 21.5315 13.1448C21.5595 13.4186 21.5595 13.4186 21.8394 13.4733C21.8673 13.4733 21.8673 13.5007 21.8953 13.5007C22.0913 13.665 22.623 13.665 22.7909 13.4733C22.8469 13.4186 22.9029 13.3638 22.9589 13.3091C23.0428 13.1448 23.2388 13.1995 23.3787 13.1448C23.4067 13.1174 23.4627 13.1448 23.4906 13.1448C23.7985 13.1448 23.8265 13.09 23.8265 12.7888C23.8265 12.5972 23.8265 12.5972 23.5746 12.5424C23.5466 12.5424 23.5466 12.515 23.5186 12.515C23.4906 12.4329 23.4906 12.3781 23.5186 12.296C23.7425 12.1317 23.9664 11.9948 24.2463 12.1591C24.3023 12.1864 24.3863 12.1591 24.4702 12.1864C24.5262 12.2138 24.6102 12.2138 24.6382 12.2686C24.6661 12.3233 24.5822 12.3507 24.5542 12.4055C24.5262 12.4329 24.5262 12.4329 24.4982 12.4603C24.3023 12.5972 24.3023 12.7888 24.3303 12.9805C24.3303 13.1174 24.4982 13.2543 24.6661 13.2543C24.8061 13.2543 24.918 13.2543 25.058 13.2543C25.1699 13.2543 25.1979 13.1995 25.1979 13.09C25.1979 12.871 25.1699 12.6793 25.1979 12.4603C25.1979 12.4329 25.2259 12.4055 25.2539 12.3781C25.5058 12.296 25.7297 12.1591 25.9816 12.1043C26.0655 12.0769 26.1775 12.0495 26.2615 12.0222C26.4014 11.9948 26.5413 11.9948 26.6813 11.9674C26.9052 11.94 27.1291 11.9674 27.353 12.0769C27.5489 12.1864 27.7728 12.296 27.9967 12.3507C28.1366 12.3781 28.2486 12.4603 28.3605 12.5424C28.3605 12.5698 28.3605 12.5698 28.3605 12.5972C28.3046 12.6519 28.2206 12.6793 28.3046 12.7614C28.3326 12.7888 28.3605 12.8436 28.3605 12.8983C28.3326 13.1722 28.4165 13.446 28.3046 13.6924C28.2766 13.7745 28.3605 13.7472 28.3885 13.7745C28.4165 13.7745 28.4725 13.8019 28.4725 13.8567C28.4445 13.9114 28.3885 13.9114 28.3605 13.9114C28.1366 13.9662 28.0807 14.021 28.0527 14.24C28.0527 14.2948 28.0527 14.3495 27.9967 14.4043C27.8288 14.4591 27.6888 14.4317 27.5489 14.3495C27.409 14.2674 27.241 14.24 27.1011 14.24C26.9052 14.24 26.7652 14.1579 26.6253 14.0483C26.5413 13.9936 26.5413 13.9662 26.6253 13.9114C26.9052 13.8019 27.1571 13.6376 27.4369 13.5007C27.6329 13.4186 27.6329 13.2543 27.409 13.1174C27.381 13.0353 27.325 12.9805 27.241 12.9531C27.1571 12.8436 27.0451 12.8162 26.9332 12.8436C26.7372 12.871 26.5133 12.871 26.3174 12.9531C26.2335 12.9805 26.1495 13.0079 26.0655 13.0079C25.9256 13.0079 25.8136 13.0353 25.7297 13.1448C25.5338 13.2269 25.3938 13.4186 25.1979 13.5007C25.086 13.5281 25.002 13.5007 24.89 13.5555C24.8621 13.5555 24.8341 13.5555 24.8061 13.5829C24.6661 13.6103 24.7221 13.7198 24.7221 13.8019C24.7221 13.8841 24.8061 13.9388 24.7781 14.021C24.7781 14.021 24.7501 14.0483 24.7221 14.0483C24.6661 14.0757 24.5822 14.0483 24.5262 14.1031C24.4982 14.1305 24.4982 14.1579 24.4702 14.1853C24.3863 14.3222 24.3023 14.3222 24.1624 14.2126C24.1064 14.1305 24.1624 13.9662 24.0224 13.9388C23.8545 13.9114 23.6866 13.9114 23.5186 13.9662C23.4347 13.9936 23.3227 14.0757 23.2388 14.0757C22.8749 14.2674 22.5111 14.4591 22.1752 14.6781C22.1192 14.7055 22.0913 14.7329 22.0353 14.7603C21.8394 14.7876 21.7274 14.9245 21.5875 15.0067C21.4755 15.0614 21.5315 15.1983 21.5595 15.3079C21.5875 15.3626 21.6155 15.39 21.6155 15.4448C21.6155 15.6912 21.7274 15.8555 21.9793 15.965C22.1752 16.0472 22.3711 16.1841 22.623 16.1841C22.679 16.1841 22.8189 16.1293 22.8189 16.2936C22.707 16.3483 22.595 16.321 22.5111 16.321C22.9309 16.4031 22.9589 16.321 22.9589 16.8686C22.9589 16.9233 22.9589 17.0055 22.9589 17.0603C22.9589 16.8686 22.9589 16.6495 22.9589 16.4579C22.9589 16.3757 22.9309 16.2936 23.0149 16.2662C23.0988 16.321 23.0708 16.4031 23.0988 16.4853C23.0988 16.7043 23.0988 16.9233 23.0988 17.1424C23.2108 17.3067 23.5186 17.3067 23.6026 17.115C23.6866 16.9507 23.8265 16.8138 23.8545 16.5948C24.0504 16.3757 24.3023 16.2388 24.6102 16.2114C24.7501 16.2114 24.8341 16.1293 24.946 16.0472C25.03 15.9924 25.03 15.9103 25.03 15.8281C25.03 15.5269 25.03 15.2257 25.03 14.9245C25.03 14.8972 25.03 14.8972 25.058 14.8698C25.2259 14.6233 25.4778 14.4864 25.7017 14.5138C25.8696 14.7055 26.1215 14.6781 26.3454 14.6781C26.3734 14.6781 26.4294 14.6781 26.4574 14.7055C26.6253 14.815 26.6813 14.9519 26.6533 15.1436C26.6533 15.2531 26.6533 15.39 26.6533 15.4995C26.6533 15.5817 26.6813 15.6638 26.7652 15.6638C26.9891 15.6364 27.213 15.6091 27.409 15.4448C27.409 15.4174 27.4369 15.4174 27.4649 15.4174C27.5489 15.39 27.6049 15.39 27.6888 15.3626C27.8848 15.3079 27.9407 15.3626 27.9687 15.5543C27.9967 15.7186 27.9967 15.8829 28.0527 16.0472C28.0807 16.1567 28.1366 16.2388 28.2486 16.2936C28.2766 16.4031 28.4445 16.3757 28.4445 16.4853C28.3885 16.5126 28.3326 16.54 28.3885 16.6495C28.4725 16.8138 28.4725 17.0055 28.2766 17.115C28.3326 17.1698 28.4165 17.1424 28.4445 17.1698C28.4445 17.1972 28.4445 17.1972 28.4445 17.2245C28.3046 17.2793 28.1646 17.3067 28.0247 17.3067C27.9967 17.3067 27.9687 17.2793 27.9407 17.2793C27.9127 17.2519 27.8568 17.2245 27.8288 17.1972C27.6329 17.0876 27.6049 17.115 27.5489 17.3341C27.5209 17.3888 27.4929 17.4436 27.4369 17.4436C27.241 17.471 27.0731 17.4983 26.8772 17.5531C26.7932 17.5805 26.7652 17.5257 26.7093 17.4436C26.4574 17.1424 26.1495 17.0603 25.8976 17.2245C25.7577 17.3341 25.7857 17.4162 25.7857 17.5531C25.7577 17.7174 25.8136 17.7995 26.0096 17.7995C26.1775 17.7995 26.2055 17.8817 26.1495 18.046C26.0935 18.1007 26.0375 18.0733 26.0096 18.0186C25.8136 17.8817 25.6457 17.9091 25.4778 18.0733C25.3658 18.1829 25.2259 18.3198 25.086 18.4293C25.002 18.4841 24.946 18.5388 24.89 18.621C24.8061 18.7853 24.6661 18.8948 24.4982 18.9769C24.2183 19.1412 23.8825 19.2507 23.6306 19.4698C23.4067 19.6614 23.2108 19.8805 22.9869 20.0722C22.8189 20.2364 22.651 20.3733 22.5391 20.565C22.5111 20.6472 22.4551 20.7293 22.4551 20.8114C22.4271 20.9757 22.3991 21.1126 22.2592 21.1948C22.2312 21.1948 22.2312 21.2222 22.2032 21.2222C22.1192 21.2222 22.0633 21.2769 22.0633 21.3591C22.0633 21.3864 22.0353 21.3864 22.0073 21.4138C21.7834 21.5233 21.5315 21.6603 21.3636 21.8245C21.3076 21.8793 21.2516 21.9067 21.1956 21.9614C21.1397 22.0162 21.0557 22.071 20.9997 22.1257L20.9717 22.1531C20.8878 22.2353 20.8038 22.3174 20.8318 22.4543C20.8318 22.7007 20.8318 22.9198 20.8318 23.1662C20.8318 23.3305 20.7758 23.3853 20.5799 23.3305C20.412 23.3031 20.328 23.1936 20.1881 23.1114C20.1041 23.0567 20.1041 22.9472 20.1041 22.865C20.1041 22.4269 20.1321 22.4543 19.6563 22.4543C19.0965 22.4543 18.5648 22.4543 18.005 22.4543C17.8651 22.4543 17.7251 22.4817 17.6132 22.5912C17.5852 22.5912 17.5852 22.6186 17.5572 22.6186C17.3053 22.6733 17.1374 22.8103 16.9135 22.9472C16.8855 22.9472 16.8855 22.9745 16.8575 22.9745C16.7735 22.9745 16.6896 23.0293 16.6616 23.1114C16.6616 23.1388 16.6336 23.1388 16.6336 23.1662C16.5496 23.221 16.5217 23.3031 16.4937 23.3853C16.4657 23.4126 16.4657 23.44 16.4097 23.4674C16.2418 23.5769 16.1578 23.7412 16.1018 23.9329C16.0739 24.0424 16.0459 24.1519 15.9899 24.2614C15.8779 24.3983 15.9339 24.8638 16.0459 25.0007C16.0739 25.0281 16.1018 25.0829 16.1018 25.1376C16.1018 25.165 16.1018 25.165 16.1018 25.1924C16.1018 25.3293 16.1858 25.4388 16.2698 25.521C16.2978 25.6031 16.3817 25.6305 16.4657 25.6305C16.5496 25.6305 16.6616 25.6305 16.6336 25.7126C16.6336 25.8222 16.5217 25.7948 16.4377 25.7948C16.3537 25.7948 16.2698 25.7948 16.1858 25.8222C16.1578 25.8495 16.1298 25.8769 16.1298 25.9043C16.1298 25.9591 16.1298 26.0138 16.0739 26.0686C16.0459 26.096 16.0179 26.096 15.9899 26.0686C15.8779 25.9317 15.738 25.9043 15.5701 25.9043C15.3742 25.9043 15.1782 25.9317 15.0663 25.7674C15.0383 25.7126 14.9543 25.74 14.8984 25.7126C14.7304 25.6852 14.6185 25.6305 14.5625 25.4662C14.5345 25.3567 14.4226 25.3293 14.3946 25.2198C14.3106 25.1376 14.2266 25.0555 14.1987 24.946C14.1707 24.8912 14.1147 24.8364 14.0867 24.8091C14.0587 24.7817 14.0587 24.7543 14.0867 24.7269C14.2266 24.6995 14.1987 24.5626 14.2826 24.4805C14.3946 24.3983 14.3946 24.2888 14.2826 24.2067L14.2546 24.1793C14.2266 24.1519 14.2266 24.1245 14.1987 24.0972C14.1707 24.0424 14.1427 24.015 14.1147 23.9876L14.0867 23.9603C14.0587 23.8507 14.0027 23.796 13.8908 23.7412C13.8628 23.7138 13.8348 23.6864 13.8348 23.6591C13.8348 23.6317 13.8348 23.6043 13.8348 23.5769C13.8348 23.4948 13.7509 23.4948 13.7229 23.4674C13.6949 23.44 13.6949 23.4126 13.6949 23.4126C13.6949 23.3305 13.6389 23.3031 13.5549 23.2757C13.471 23.1662 13.415 23.0567 13.359 22.9472C13.331 22.865 13.359 22.7829 13.331 22.7007C13.303 22.5638 13.303 22.4269 13.2191 22.29C13.1911 22.2079 13.1911 22.1257 13.1631 22.071C13.1351 21.7972 13.0791 21.7698 12.8552 21.7424C12.6593 21.7424 12.6033 21.7972 12.6033 21.9888C12.6033 22.2079 12.6313 22.4543 12.6873 22.646C12.7153 22.7281 12.7433 22.7829 12.7433 22.865C12.7433 22.8924 12.7433 22.8924 12.7713 22.9198C12.7713 23.0019 12.8273 23.0841 12.9112 23.1388C12.9392 23.1662 12.9392 23.1936 12.9672 23.221C13.1071 23.44 13.2191 23.6591 13.387 23.8507C13.471 23.9603 13.443 24.0698 13.331 24.1519C13.1911 24.2614 12.8832 24.1793 12.7713 24.0424C12.6593 23.8781 12.6033 23.7138 12.4634 23.5769C12.4074 23.3579 12.2395 23.1936 12.1835 22.9745C12.1555 22.8103 12.0996 22.6733 12.1276 22.5091C12.1276 22.2626 12.1276 22.0162 12.1555 21.7424C12.1835 21.6055 12.0156 21.4412 11.8477 21.3864C11.7917 21.3591 11.7357 21.3591 11.6797 21.3317C11.6238 21.2769 11.5678 21.1948 11.4838 21.1674C11.4558 21.1674 11.4558 21.14 11.4558 21.1126C11.4279 20.8388 11.4558 20.565 11.4279 20.3186C11.4279 20.1817 11.4838 20.0448 11.5398 19.9353C11.6238 19.7162 11.7637 19.5245 11.8197 19.3055C11.9876 19.0591 12.0716 18.7853 12.2675 18.5662C12.3235 18.5114 12.3235 18.4293 12.3515 18.3472C12.5194 18.265 12.5754 18.0733 12.6593 17.9091C12.7433 17.7448 12.8552 17.6079 12.9112 17.4436C12.9952 17.3888 12.9952 17.2793 13.0791 17.2245C13.2191 17.115 13.303 16.9781 13.359 16.8412C13.443 16.6769 13.5549 16.54 13.6669 16.4031C13.7509 16.2936 13.8348 16.2114 13.8908 16.1019C13.9188 16.0745 13.9468 16.0198 13.9748 15.9924C14.0027 15.965 14.0587 15.9376 14.0867 15.8829V15.8555C14.1707 15.8281 14.2266 15.7733 14.2826 15.6912V15.6638L14.3106 15.6364C14.3666 15.6091 14.3946 15.5817 14.4226 15.5269L14.4506 15.4995C14.5345 15.4448 14.5905 15.39 14.6465 15.3079C14.9543 14.9793 15.2902 14.6507 15.5981 14.3495C15.794 14.2674 15.8779 14.0757 16.0459 13.9662C16.2418 13.8019 16.4377 13.6376 16.6056 13.446C16.8015 13.3364 17.1094 13.2543 17.3053 13.0353Z" fill="#354DBB" stroke="#546AD0" stroke-width="0.5"></path><path d="M37.7858 44.5729C37.7638 44.5893 37.7419 44.6056 37.7199 44.6219C37.6044 44.7418 37.4187 44.6756 37.2869 44.7736C37.199 44.839 37.0949 44.8824 37.007 44.9477C36.9191 45.013 36.8313 45.0783 36.7165 45.0616C36.6782 45.056 36.618 45.0667 36.596 45.0831C36.3544 45.2627 36.0589 45.2782 35.7846 45.414C35.5706 45.5391 35.2971 45.5382 35.0994 45.6852C34.9683 45.6465 34.8584 45.7281 34.7543 45.7716C34.7323 45.7879 34.6883 45.8206 34.6664 45.8369C34.497 45.7926 34.3709 45.8523 34.2228 45.9284C34.1243 45.9336 33.9875 45.9331 33.8996 45.9985C33.8394 46.0092 33.7955 46.0419 33.7296 46.0909C33.6204 46.0358 33.5163 46.0793 33.4284 46.1446C33.4064 46.1609 33.3462 46.1717 33.3242 46.188C33.1988 46.111 33.1053 46.2146 33.0011 46.258L32.9791 46.2744C32.8863 46.2413 32.8041 46.2683 32.7219 46.2954C32.3881 46.3053 32.0813 46.3973 31.7256 46.4235C31.3698 46.4497 31.0141 46.4759 30.6527 46.5403C30.5322 46.5618 30.4231 46.5068 30.3026 46.5283C29.903 46.5871 29.526 46.493 29.1263 46.5519C29.0661 46.5626 29.0335 46.5188 28.9789 46.4912C28.8478 46.4526 28.7883 46.3266 28.7288 46.2007C28.6856 46.0967 28.7734 46.0313 28.8393 45.9823C29.037 45.8353 29.1965 45.6828 29.4105 45.5577C29.6245 45.4326 29.7131 45.2306 29.7691 44.9848C29.7974 44.7935 29.8421 44.6241 29.925 44.4604C29.986 44.313 30.0575 44.2257 30.1893 44.1277C30.409 43.9644 30.6124 43.7792 30.8484 43.6378C31.0844 43.4964 31.1729 43.2943 31.1907 43.0429C31.2367 42.6002 31.506 42.3659 31.9496 42.2744C32.2508 42.2207 32.53 42.1833 32.8312 42.1296C33.0062 42.1356 33.1869 42.1034 33.2372 41.8958C33.3471 41.8141 33.4023 41.705 33.4031 41.5683C33.4583 41.4591 33.4754 41.3444 33.5306 41.2352C33.5802 41.1643 33.6298 41.0933 33.6249 40.9949L33.6306 40.9567C33.7021 40.8694 33.7574 40.7602 33.7581 40.6236C33.7638 40.5853 33.7858 40.569 33.7914 40.5307C33.8793 40.4654 33.9126 40.3726 33.9077 40.2741C33.9296 40.2578 33.9133 40.2359 33.9353 40.2195C34.0451 40.1379 33.9913 39.9737 34.1174 39.9139C34.1394 39.8976 34.1777 39.9032 34.1996 39.8869C34.2542 39.9144 34.3201 39.8654 34.364 39.8327C34.5178 39.7184 34.6716 39.6041 34.8636 39.4953C34.9898 39.4356 35.0613 39.3483 35.084 39.1953C35.1117 39.1407 35.1776 39.0917 35.2158 39.0973C35.4291 39.109 35.4901 38.9615 35.5128 38.8085C35.5411 38.6172 35.4107 38.4419 35.2088 38.3537C35.1542 38.3262 35.1216 38.2824 35.067 38.2549C35.0508 38.233 35.0507 38.233 35.0345 38.211C35.0182 38.1891 35.0401 38.1728 35.0238 38.1509C35.0515 38.0963 35.0408 38.0361 35.0082 37.9923C34.9324 37.8444 34.9168 37.6858 34.9615 37.5164C34.9785 37.4017 34.9735 37.3033 34.9523 37.1829C34.9743 37.1666 34.9743 37.1666 34.9962 37.1502C35.0182 37.1339 35.0565 37.1395 35.0402 37.1176C34.9155 36.904 34.7851 36.7286 34.6164 36.5476C34.6001 36.5257 34.5619 36.5201 34.5236 36.5145C34.4308 36.4814 34.3266 36.5248 34.2557 36.4754C34.1849 36.426 34.097 36.4913 34.0261 36.4419C33.7597 36.1294 33.5372 35.7842 33.2545 35.4498C33.1893 35.3621 33.1404 35.2963 32.998 35.3342C32.7252 35.1966 32.5955 34.8846 32.6791 34.5841C32.7181 34.453 32.7351 34.3383 32.7521 34.2235C32.852 33.945 32.8811 33.617 32.9647 33.3166C33.0094 33.1472 33.0377 32.956 33.0441 32.781C33.0555 32.7045 33.0505 32.6061 33.1001 32.5352C33.1774 32.4097 33.2872 32.328 33.419 32.23C33.6989 32.056 33.9625 31.86 34.2099 31.6421C34.2758 31.5931 34.3034 31.5385 34.3962 31.5716C34.4834 31.6429 34.5762 31.676 34.6861 31.5944C34.752 31.5454 34.8122 31.5346 34.8887 31.5458C35.0035 31.5626 35.1134 31.4809 35.1849 31.3937C35.2402 31.2845 35.197 31.1805 35.1318 31.0928C35.0829 31.027 35.056 30.9449 35.0893 30.8521C35.2601 30.623 35.4791 30.5964 35.7356 30.712C35.7738 30.7176 35.7901 30.7395 35.8284 30.7451C35.883 30.7726 35.9432 30.7619 35.9978 30.7894C36.3748 30.8835 36.7404 31.0542 37.1011 31.1264C37.2867 31.1926 37.4887 31.2807 37.6963 31.3306C37.7176 31.451 37.7892 31.3637 37.8331 31.331C37.9812 31.255 38.0967 31.1351 38.2285 31.0371C38.3164 30.9717 38.3823 30.9227 38.4808 30.9176C38.5793 30.9124 38.5141 30.8247 38.5198 30.7865C38.5474 30.7319 38.602 30.7594 38.6183 30.7813C38.6672 30.8471 38.7274 30.8364 38.7876 30.8256C38.935 30.8862 39.0881 30.9086 39.2078 31.0238C39.2404 31.0676 39.273 31.1115 39.2674 31.1497C39.1795 31.215 39.2284 31.2808 39.261 31.3247C39.4402 31.5658 39.6195 31.8069 39.7988 32.0481C39.701 31.9165 39.5869 31.7631 39.4891 31.6316C39.4565 31.5877 39.3694 31.5164 39.4955 31.4566C39.7081 31.6049 39.8271 31.8568 39.9738 32.0541C40.0227 32.1199 40.0659 32.2239 40.1701 32.1805C40.2084 32.1861 40.2466 32.1916 40.2849 32.1972C40.3501 32.2849 40.4373 32.3563 40.5358 32.3511C40.552 32.373 40.552 32.373 40.5683 32.395C40.5294 32.5261 40.6605 32.5647 40.7094 32.6305C40.7582 32.6963 40.8348 32.7075 40.8674 32.7513C41.1126 32.9434 41.3081 33.2065 41.559 33.3604C41.6405 33.47 41.7439 33.5633 41.7815 33.7055C41.7538 33.7601 41.6936 33.7709 41.7042 33.831C41.7092 33.9295 41.605 33.9729 41.5391 34.0219C41.4732 34.0709 41.4293 34.1035 41.3853 34.1362C41.4732 34.0709 41.605 33.9729 41.7148 33.8912C41.7588 33.8586 41.8027 33.8259 41.8573 33.8534C41.9005 33.9574 41.7963 34.0008 41.7524 34.0335C41.6206 34.1315 41.4668 34.2458 41.335 34.3438C41.1812 34.4581 41.1699 34.5346 41.262 34.7044C41.4193 34.9619 41.4342 35.2572 41.5915 35.5146C41.5745 35.6294 41.5794 35.7278 41.6609 35.8374C41.7913 36.0128 41.7573 36.2423 41.7892 36.4229C41.8423 36.7237 42.0442 36.8119 42.3022 36.6541C42.3681 36.6051 42.4397 36.5179 42.5488 36.5729C42.5318 36.6877 42.4113 36.7091 42.3397 36.7964C42.5481 36.7096 42.5644 36.7315 42.6948 36.9069C42.7762 37.0165 42.8358 37.1424 43.0108 37.1485C43.0817 37.1979 43.0703 37.2744 43.0809 37.3346C43.0689 37.5478 43.0788 37.7446 43.0887 37.9415C43.088 38.0782 43.1695 38.1878 43.229 38.3137C43.4246 38.5768 43.6202 38.8398 43.832 39.1248C43.8809 39.1906 43.9298 39.2563 43.8965 39.3492C43.9121 39.5078 43.8185 39.6114 43.7087 39.693C43.6428 39.742 43.533 39.8237 43.5216 39.9002C43.4713 40.1078 43.3012 40.2002 43.1474 40.3145C43.01 40.4508 42.8342 40.5814 42.7456 40.7834C42.7237 40.7998 42.7017 40.8161 42.6797 40.8324C42.5047 40.8264 42.3998 41.0065 42.2737 41.0662C42.4218 40.9902 42.521 40.8483 42.6797 40.8324C42.6407 40.9635 42.5203 40.985 42.4324 41.0503C42.3445 41.1157 42.2404 41.1591 42.2071 41.2519C42.0356 41.6177 41.6791 41.7806 41.3879 42.0311C41.3659 42.0475 41.3602 42.0857 41.3382 42.102C40.6572 42.6083 39.9762 43.1146 39.2952 43.6209C39.2732 43.6373 39.2513 43.6536 39.213 43.648C39.1251 43.7133 39.0153 43.795 38.9274 43.8603C38.7581 43.8161 38.7581 43.8161 38.7517 43.991C38.7297 44.0073 38.7077 44.0237 38.6858 44.04C38.5873 44.0451 38.4838 43.9519 38.374 44.0335C38.1763 44.1805 37.9566 44.3438 37.7858 44.5729Z" fill="#354DBB" stroke="#546AD0" stroke-width="0.5"></path><path d="M25.4117 35.0926C25.4117 35.1841 25.4117 35.2756 25.4117 35.3672C25.3671 35.4358 25.3448 35.5044 25.3448 35.5731C25.3671 35.8019 25.4117 36.0307 25.3671 36.2366C25.3671 36.2823 25.3671 36.3052 25.4117 36.3281C25.3894 36.4196 25.3225 36.4883 25.2556 36.5569C25.1218 36.7399 24.9879 36.923 24.8764 37.106C24.7426 37.1289 24.6088 37.3348 24.6088 37.5178C24.5195 37.7009 24.3857 37.861 24.2519 37.9754C24.0289 38.0212 23.8504 38.1356 23.6497 38.2271C23.5605 38.2728 23.4489 38.2728 23.3597 38.2728C23.2259 38.2728 23.0921 38.2957 22.9806 38.4101C22.9137 38.4788 22.9137 38.5474 22.936 38.616C22.9583 38.7076 23.0029 38.7533 23.0921 38.7533C23.1144 38.7533 23.159 38.7533 23.1813 38.7533C23.3151 38.7762 23.3597 38.8906 23.2705 38.9821C23.2482 39.0279 23.2036 39.0507 23.1813 39.1194C23.0921 39.1194 23.0698 39.2109 23.0252 39.2338C22.869 39.2567 22.8467 39.3482 22.9137 39.4626C23.0252 39.6227 23.1144 39.8058 23.382 39.76C23.4713 39.7371 23.5159 39.7829 23.4936 39.8973C23.4489 40.0803 23.4713 40.2634 23.3597 40.4464C23.2928 40.5608 23.3374 40.6752 23.4489 40.7667C23.6274 40.904 23.8058 41.0184 23.9173 41.2014C23.9842 41.2929 23.9396 41.3844 23.8281 41.4073C23.7835 41.4073 23.7389 41.4073 23.6943 41.4073C23.6497 41.3387 23.5605 41.3616 23.4936 41.3616C23.382 41.3616 23.2482 41.3844 23.1367 41.3158C23.0698 41.2929 23.0029 41.27 22.9583 41.1785C22.936 41.1328 22.8913 41.1099 22.8244 41.1099C22.7129 40.9955 22.6014 40.8811 22.4676 40.7896C22.3114 40.6752 22.1999 40.5379 22.133 40.3778C22.0438 40.1718 21.91 40.0117 21.8208 39.8058C21.7984 39.7143 21.7761 39.6227 21.7092 39.5312C21.6646 39.4855 21.6646 39.4168 21.6646 39.3482C21.6646 39.0507 21.6646 38.7304 21.6869 38.433C21.7092 38.1813 21.62 37.9983 21.4639 37.8381C21.2408 37.6093 21.1739 37.3348 21.3078 37.0374C21.397 36.8314 21.397 36.6027 21.3747 36.3739C21.3747 36.2823 21.3301 36.2137 21.2185 36.2137C21.107 36.2137 21.0847 36.1451 21.0847 36.0535C21.0847 35.3672 21.0847 34.6808 21.0847 33.9944C21.0847 33.9486 21.0847 33.9258 21.0847 33.88C21.107 33.6512 20.9732 33.5139 20.7948 33.3995C20.6386 33.308 20.5048 33.1936 20.371 33.0792C20.2595 32.9877 20.1479 32.9648 20.0364 32.9419C19.9472 32.8276 19.7911 32.8504 19.6796 32.7818C19.6796 32.7132 19.6796 32.6674 19.6796 32.5988C19.6573 32.553 19.6573 32.4844 19.6573 32.4157C19.6573 32.3242 19.6349 32.2327 19.5234 32.2098V32.1869C19.5011 32.1183 19.4565 32.0954 19.4119 32.0725C19.3004 31.8895 19.122 31.7522 19.0104 31.5463C18.8989 31.3633 18.7428 31.1802 18.5867 31.0201C18.5197 30.9514 18.5197 30.8599 18.5644 30.8142C18.6759 30.6082 18.6759 30.4023 18.6759 30.1735C18.6759 30.1278 18.6759 30.082 18.6982 30.0591C18.7874 30.1964 18.7205 30.3566 18.7428 30.471C18.7651 30.2879 18.7428 30.0591 18.7651 29.8303C18.7651 29.7846 18.7428 29.7388 18.6982 29.716C18.7874 29.5787 18.9435 29.51 19.055 29.4185C19.1443 29.3499 19.2335 29.2812 19.345 29.2355C19.4342 29.2126 19.4565 29.0753 19.4342 29.0067C19.3896 28.755 19.5457 28.6864 19.5457 28.5949C19.5457 28.4805 19.5457 28.3661 19.5457 28.2288C19.5457 28.183 19.5457 28.1602 19.568 28.1144C19.6349 27.9542 19.5903 27.9314 19.6126 27.8856C19.7465 27.6797 19.9249 27.5195 20.0587 27.3136C20.081 27.2679 20.081 27.2221 20.1256 27.1992C20.1926 27.1763 20.2149 27.1535 20.2372 27.0848V27.0619C20.2595 27.0391 20.2818 27.0391 20.3041 27.0391C20.3487 27.0391 20.4156 27.0391 20.4602 27.0391C20.4825 27.0391 20.5048 27.0391 20.5271 27.0619C20.5494 27.0619 20.5494 27.0619 20.5717 27.0848C20.7725 27.1535 20.9732 27.2221 21.1739 27.245L21.1962 27.2679C21.2185 27.3136 21.2408 27.3365 21.2855 27.3594C21.3078 27.3823 21.3078 27.4051 21.3078 27.428C21.3301 27.5195 21.4193 27.5882 21.4862 27.6568C21.5977 27.7026 21.7092 27.6797 21.8208 27.6568C21.9769 27.6568 22.133 27.6568 22.2891 27.6568C22.4007 27.6568 22.4676 27.5653 22.5568 27.4967C22.5791 27.4967 22.6237 27.4967 22.646 27.4967C22.8021 27.5653 22.8913 27.7026 23.0029 27.817C23.0252 27.9314 23.1367 27.9771 23.159 28.0915C23.2705 28.183 23.2928 28.3432 23.4266 28.4347C23.4936 28.4805 23.5605 28.5033 23.6497 28.5033C23.8281 28.5033 24.0066 28.5033 24.185 28.5033C24.3188 28.5033 24.408 28.5491 24.4303 28.6864C24.4526 28.8008 24.5419 28.8923 24.5865 28.9838C24.6757 29.144 24.6757 29.327 24.6757 29.4872C24.6534 29.6931 24.698 29.8532 24.8987 29.9219C25.0771 29.9905 25.2556 30.0591 25.434 30.1278C25.4563 30.1278 25.5009 30.1278 25.5232 30.1507C25.5232 30.1507 25.5232 30.1507 25.5009 30.1735C25.4786 30.1735 25.4563 30.1735 25.4563 30.1507C25.434 30.1507 25.4117 30.1507 25.3894 30.1507C25.2779 30.1964 25.2556 30.2651 25.2779 30.3795C25.3002 30.4481 25.2779 30.5167 25.2779 30.5854C25.2779 31.9581 25.2779 33.3309 25.2779 34.7037C25.3448 34.8867 25.3225 35.0011 25.4117 35.0926Z" fill="#354DBB" stroke="#546AD0" stroke-width="0.5"></path><path d="M36.1541 10.2762C33.7405 9.18049 31.0597 8.57031 28.2364 8.57031C17.6462 8.57031 9.06116 17.1553 9.06116 27.7455C9.06116 38.3357 17.6462 46.9207 28.2364 46.9207C36.8466 46.9207 44.1313 41.2458 46.5543 33.4321" stroke="white" stroke-width="1.5"></path><path d="M9.1491 25.9582C5.92023 28.8517 4.35425 31.7548 5.23967 33.8261C6.93246 37.786 16.6473 37.38 27.0575 32.9298C29.537 31.8699 31.8235 30.6799 33.8456 29.4293" stroke="white" stroke-width="1.5" stroke-miterlimit="10" stroke-linecap="round" stroke-linejoin="round"></path><path opacity="0.1" d="M8.99943 26.9976C7.17675 29.0017 6.67106 30.7654 7.29607 32.2274C8.75448 35.6391 17.2882 35.3057 26.4039 31.4089C28.8347 30.3698 31.0307 29.2255 32.9166 28.0413" stroke="white" stroke-width="1.5" stroke-miterlimit="10" stroke-linecap="round" stroke-linejoin="round"></path></svg>