<svg xmlns="http://www.w3.org/2000/svg" width="56" height="56" viewBox="0 0 56 56" fill="none"><path d="M33.9859 28.5688V21.6782C33.9859 21.1567 33.9859 20.8959 34.0866 20.6967C34.1753 20.5215 34.3167 20.3791 34.4906 20.2898C34.6883 20.1883 34.9471 20.1883 35.4648 20.1883H38.0529C38.5706 20.1883 38.8294 20.1883 39.0272 20.2898C39.2011 20.3791 39.3425 20.5215 39.4311 20.6967C39.5318 20.8959 39.5318 21.1567 39.5318 21.6782V28.5688M27.5156 17.8604L35.8715 11.547C36.1897 11.3066 36.3488 11.1864 36.5236 11.1401C36.6778 11.0991 36.8399 11.0991 36.9942 11.1401C37.1689 11.1864 37.328 11.3066 37.6462 11.547L46.0021 17.8604M29.3643 16.4636V25.5891C29.3643 26.6321 29.3643 27.1536 29.5658 27.552C29.743 27.9024 30.0258 28.1873 30.3737 28.3659C30.7691 28.5688 31.2868 28.5688 32.3221 28.5688H41.1956C42.231 28.5688 42.7486 28.5688 43.1441 28.3659C43.4919 28.1873 43.7747 27.9024 43.952 27.552C44.1535 27.1536 44.1535 26.6321 44.1535 25.5891V16.4636L38.5336 12.2175C37.8972 11.7366 37.579 11.4962 37.2295 11.4035C36.921 11.3217 36.5967 11.3217 36.2883 11.4035C35.9388 11.4962 35.6206 11.7366 34.9842 12.2175L29.3643 16.4636Z" stroke="white" stroke-width="1.5" stroke-linecap="round" stroke-linejoin="round"></path><ellipse cx="19.5221" cy="29.8974" rx="4.93616" ry="5.16303" stroke="white" stroke-width="1.5"></ellipse><path d="M10 44.602C10 39.5924 14.0611 35.5312 19.0707 35.5312H20.0157C25.0254 35.5312 29.0865 39.5924 29.0865 44.602V44.602C29.0865 44.9151 28.8326 45.1689 28.5195 45.1689H10.5669C10.2538 45.1689 10 44.9151 10 44.602V44.602Z" stroke="white" stroke-width="1.5"></path><path d="M25.6348 11.1094H15.4727C12.9874 11.1094 10.9727 13.1241 10.9727 15.6094V21.0418M45.0267 32.3932V40.6634C45.0267 43.1487 43.012 45.1634 40.5267 45.1634H32.9085" stroke="white" stroke-width="1.5" stroke-linecap="round" stroke-linejoin="round"></path></svg>